<svg height="819pt" viewBox="0.00 0.00 349.99 818.66" width="350pt" xmlns="http://www.w3.org/2000/svg" xmlns:xlink="http://www.w3.org/1999/xlink">
<g class="graph" id="graph0" transform="scale(1 1) rotate(0) translate(4 814.66)">
<title>%3</title>
<polygon fill="white" points="-4,4 -4,-814.66 345.99,-814.66 345.99,4 -4,4" stroke="transparent"/>
<!-- 2433749135008548631 -->
<g class="node" id="node1">
<title>2433749135008548631</title>
<ellipse cx="170.5" cy="-658.07" fill="none" rx="80.69" ry="80.69" stroke="black"/>
<text font-family="Times,serif" font-size="14.00" text-anchor="middle" x="170.5" y="-654.37">sum-aggregate</text>
</g>
<!-- &#45;3318625691064969512 -->
<g class="node" id="node2">
<title>-3318625691064969512</title>
<polygon fill="none" points="197.5,-810.66 143.5,-810.66 143.5,-774.66 197.5,-774.66 197.5,-810.66" stroke="black"/>
<text font-family="Times,serif" font-size="14.00" text-anchor="middle" x="170.5" y="-788.96">()</text>
</g>
<!-- 2433749135008548631&#45;&gt;&#45;3318625691064969512 -->
<g class="edge" id="edge1">
<title>2433749135008548631-&gt;-3318625691064969512</title>
<path d="M170.5,-738.88C170.5,-747.97 170.5,-756.72 170.5,-764.38" fill="none" stroke="black"/>
<polygon fill="black" points="167,-764.42 170.5,-774.42 174,-764.42 167,-764.42" stroke="black"/>
</g>
<!-- &#45;9037160198514385883 -->
<g class="node" id="node3">
<title>-9037160198514385883</title>
<polygon fill="none" points="161.5,-541.48 107.5,-541.48 107.5,-505.48 161.5,-505.48 161.5,-541.48" stroke="black"/>
<text font-family="Times,serif" font-size="14.00" text-anchor="middle" x="134.5" y="-519.78">(0, 1)</text>
</g>
<!-- &#45;9037160198514385883&#45;&gt;2433749135008548631 -->
<g class="edge" id="edge2">
<title>-9037160198514385883-&gt;2433749135008548631</title>
<path d="M139.13,-541.54C141.27,-549.44 144,-559.47 146.94,-570.32" fill="none" stroke="black"/>
<polygon fill="black" points="143.58,-571.29 149.58,-580.02 150.33,-569.45 143.58,-571.29" stroke="black"/>
</g>
<!-- &#45;9037160198513220834 -->
<g class="node" id="node4">
<title>-9037160198513220834</title>
<polygon fill="none" points="251.5,-541.48 197.5,-541.48 197.5,-505.48 251.5,-505.48 251.5,-541.48" stroke="black"/>
<text font-family="Times,serif" font-size="14.00" text-anchor="middle" x="224.5" y="-519.78">(0, 0)</text>
</g>
<!-- &#45;9037160198513220834&#45;&gt;2433749135008548631 -->
<g class="edge" id="edge3">
<title>-9037160198513220834-&gt;2433749135008548631</title>
<path d="M217.55,-541.54C214.01,-550.24 209.41,-561.52 204.48,-573.62" fill="none" stroke="black"/>
<polygon fill="black" points="201.19,-572.42 200.66,-583.01 207.67,-575.06 201.19,-572.42" stroke="black"/>
</g>
<!-- 1127403756371291873 -->
<g class="node" id="node5">
<title>1127403756371291873</title>
<ellipse cx="243.5" cy="-405.78" fill="none" rx="63.89" ry="63.89" stroke="black"/>
<text font-family="Times,serif" font-size="14.00" text-anchor="middle" x="243.5" y="-402.08">sum-partial</text>
</g>
<!-- 1127403756371291873&#45;&gt;&#45;9037160198513220834 -->
<g class="edge" id="edge4">
<title>1127403756371291873-&gt;-9037160198513220834</title>
<path d="M233.33,-468.69C231.78,-478.11 230.26,-487.38 228.93,-495.5" fill="none" stroke="black"/>
<polygon fill="black" points="225.46,-494.99 227.3,-505.43 232.37,-496.13 225.46,-494.99" stroke="black"/>
</g>
<!-- 7156700612518248265 -->
<g class="node" id="node6">
<title>7156700612518248265</title>
<polygon fill="none" points="257.5,-306.09 203.5,-306.09 203.5,-270.09 257.5,-270.09 257.5,-306.09" stroke="black"/>
<text font-family="Times,serif" font-size="14.00" text-anchor="middle" x="230.5" y="-284.39">(0, 1)</text>
</g>
<!-- 7156700612518248265&#45;&gt;1127403756371291873 -->
<g class="edge" id="edge5">
<title>7156700612518248265-&gt;1127403756371291873</title>
<path d="M232.42,-306.16C233.23,-313.44 234.25,-322.47 235.33,-332.08" fill="none" stroke="black"/>
<polygon fill="black" points="231.88,-332.72 236.47,-342.27 238.83,-331.94 231.88,-332.72" stroke="black"/>
</g>
<!-- 7156700612519413314 -->
<g class="node" id="node7">
<title>7156700612519413314</title>
<polygon fill="none" points="333.5,-306.09 279.5,-306.09 279.5,-270.09 333.5,-270.09 333.5,-306.09" stroke="black"/>
<text font-family="Times,serif" font-size="14.00" text-anchor="middle" x="306.5" y="-284.39">(0, 0)</text>
</g>
<!-- 7156700612519413314&#45;&gt;1127403756371291873 -->
<g class="edge" id="edge6">
<title>7156700612519413314-&gt;1127403756371291873</title>
<path d="M297.2,-306.16C292.08,-315.56 285.38,-327.87 278.44,-340.61" fill="none" stroke="black"/>
<polygon fill="black" points="275.33,-339 273.62,-349.46 281.48,-342.35 275.33,-339" stroke="black"/>
</g>
<!-- 314947645646318698 -->
<g class="node" id="node8">
<title>314947645646318698</title>
<ellipse cx="98.5" cy="-405.78" fill="none" rx="63.89" ry="63.89" stroke="black"/>
<text font-family="Times,serif" font-size="14.00" text-anchor="middle" x="98.5" y="-402.08">sum-partial</text>
</g>
<!-- 314947645646318698&#45;&gt;&#45;9037160198514385883 -->
<g class="edge" id="edge7">
<title>314947645646318698-&gt;-9037160198514385883</title>
<path d="M117.24,-467C120.34,-477 123.42,-486.89 126.1,-495.5" fill="none" stroke="black"/>
<polygon fill="black" points="122.83,-496.77 129.15,-505.28 129.52,-494.69 122.83,-496.77" stroke="black"/>
</g>
<!-- 7156700612517083216 -->
<g class="node" id="node9">
<title>7156700612517083216</title>
<polygon fill="none" points="63.5,-306.09 9.5,-306.09 9.5,-270.09 63.5,-270.09 63.5,-306.09" stroke="black"/>
<text font-family="Times,serif" font-size="14.00" text-anchor="middle" x="36.5" y="-284.39">(0, 2)</text>
</g>
<!-- 7156700612517083216&#45;&gt;314947645646318698 -->
<g class="edge" id="edge8">
<title>7156700612517083216-&gt;314947645646318698</title>
<path d="M45.65,-306.16C50.61,-315.42 57.08,-327.51 63.8,-340.03" fill="none" stroke="black"/>
<polygon fill="black" points="60.9,-342.04 68.71,-349.2 67.07,-338.73 60.9,-342.04" stroke="black"/>
</g>
<!-- 7156700612515918167 -->
<g class="node" id="node10">
<title>7156700612515918167</title>
<polygon fill="none" points="137.5,-306.09 83.5,-306.09 83.5,-270.09 137.5,-270.09 137.5,-306.09" stroke="black"/>
<text font-family="Times,serif" font-size="14.00" text-anchor="middle" x="110.5" y="-284.39">(0, 3)</text>
</g>
<!-- 7156700612515918167&#45;&gt;314947645646318698 -->
<g class="edge" id="edge9">
<title>7156700612515918167-&gt;314947645646318698</title>
<path d="M108.73,-306.16C107.97,-313.44 107.04,-322.47 106.04,-332.08" fill="none" stroke="black"/>
<polygon fill="black" points="102.53,-331.96 104.98,-342.27 109.49,-332.68 102.53,-331.96" stroke="black"/>
</g>
<!-- 5140465954441123125 -->
<g class="node" id="node11">
<title>5140465954441123125</title>
<ellipse cx="308.5" cy="-203.54" fill="none" rx="30.59" ry="30.59" stroke="black"/>
<text font-family="Times,serif" font-size="14.00" text-anchor="middle" x="308.5" y="-199.84">sum</text>
</g>
<!-- 5140465954441123125&#45;&gt;7156700612519413314 -->
<g class="edge" id="edge10">
<title>5140465954441123125-&gt;7156700612519413314</title>
<path d="M307.78,-234.34C307.57,-242.69 307.35,-251.72 307.16,-259.91" fill="none" stroke="black"/>
<polygon fill="black" points="303.65,-259.98 306.91,-270.06 310.65,-260.15 303.65,-259.98" stroke="black"/>
</g>
<!-- 5581130617534253882 -->
<g class="node" id="node12">
<title>5581130617534253882</title>
<polygon fill="none" points="335.5,-136.99 281.5,-136.99 281.5,-100.99 335.5,-100.99 335.5,-136.99" stroke="black"/>
<text font-family="Times,serif" font-size="14.00" text-anchor="middle" x="308.5" y="-115.29">(0, 0)</text>
</g>
<!-- 5581130617534253882&#45;&gt;5140465954441123125 -->
<g class="edge" id="edge11">
<title>5581130617534253882-&gt;5140465954441123125</title>
<path d="M308.5,-137.1C308.5,-144.58 308.5,-153.69 308.5,-162.72" fill="none" stroke="black"/>
<polygon fill="black" points="305,-162.77 308.5,-172.77 312,-162.77 305,-162.77" stroke="black"/>
</g>
<!-- &#45;4725455469457657250 -->
<g class="node" id="node13">
<title>-4725455469457657250</title>
<ellipse cx="228.5" cy="-203.54" fill="none" rx="30.59" ry="30.59" stroke="black"/>
<text font-family="Times,serif" font-size="14.00" text-anchor="middle" x="228.5" y="-199.84">sum</text>
</g>
<!-- &#45;4725455469457657250&#45;&gt;7156700612518248265 -->
<g class="edge" id="edge12">
<title>-4725455469457657250-&gt;7156700612518248265</title>
<path d="M229.22,-234.34C229.42,-242.69 229.64,-251.72 229.84,-259.91" fill="none" stroke="black"/>
<polygon fill="black" points="226.34,-260.15 230.08,-270.06 233.34,-259.98 226.34,-260.15" stroke="black"/>
</g>
<!-- 5581130617533088833 -->
<g class="node" id="node14">
<title>5581130617533088833</title>
<polygon fill="none" points="253.5,-136.99 199.5,-136.99 199.5,-100.99 253.5,-100.99 253.5,-136.99" stroke="black"/>
<text font-family="Times,serif" font-size="14.00" text-anchor="middle" x="226.5" y="-115.29">(0, 1)</text>
</g>
<!-- 5581130617533088833&#45;&gt;&#45;4725455469457657250 -->
<g class="edge" id="edge13">
<title>5581130617533088833-&gt;-4725455469457657250</title>
<path d="M226.91,-137.1C227.09,-144.58 227.31,-153.69 227.53,-162.72" fill="none" stroke="black"/>
<polygon fill="black" points="224.03,-162.86 227.78,-172.77 231.03,-162.69 224.03,-162.86" stroke="black"/>
</g>
<!-- &#45;1837246662055191425 -->
<g class="node" id="node15">
<title>-1837246662055191425</title>
<ellipse cx="34.5" cy="-203.54" fill="none" rx="30.59" ry="30.59" stroke="black"/>
<text font-family="Times,serif" font-size="14.00" text-anchor="middle" x="34.5" y="-199.84">sum</text>
</g>
<!-- &#45;1837246662055191425&#45;&gt;7156700612517083216 -->
<g class="edge" id="edge14">
<title>-1837246662055191425-&gt;7156700612517083216</title>
<path d="M35.22,-234.34C35.42,-242.69 35.64,-251.72 35.84,-259.91" fill="none" stroke="black"/>
<polygon fill="black" points="32.34,-260.15 36.08,-270.06 39.34,-259.98 32.34,-260.15" stroke="black"/>
</g>
<!-- 5581130617531923784 -->
<g class="node" id="node16">
<title>5581130617531923784</title>
<polygon fill="none" points="60.5,-136.99 6.5,-136.99 6.5,-100.99 60.5,-100.99 60.5,-136.99" stroke="black"/>
<text font-family="Times,serif" font-size="14.00" text-anchor="middle" x="33.5" y="-115.29">(0, 2)</text>
</g>
<!-- 5581130617531923784&#45;&gt;&#45;1837246662055191425 -->
<g class="edge" id="edge15">
<title>5581130617531923784-&gt;-1837246662055191425</title>
<path d="M33.7,-137.1C33.79,-144.58 33.91,-153.69 34.01,-162.72" fill="none" stroke="black"/>
<polygon fill="black" points="30.52,-162.81 34.14,-172.77 37.51,-162.73 30.52,-162.81" stroke="black"/>
</g>
<!-- &#45;1496144773786405000 -->
<g class="node" id="node17">
<title>-1496144773786405000</title>
<ellipse cx="113.5" cy="-203.54" fill="none" rx="30.59" ry="30.59" stroke="black"/>
<text font-family="Times,serif" font-size="14.00" text-anchor="middle" x="113.5" y="-199.84">sum</text>
</g>
<!-- &#45;1496144773786405000&#45;&gt;7156700612515918167 -->
<g class="edge" id="edge16">
<title>-1496144773786405000-&gt;7156700612515918167</title>
<path d="M112.41,-234.34C112.11,-242.69 111.78,-251.72 111.48,-259.91" fill="none" stroke="black"/>
<polygon fill="black" points="107.98,-259.94 111.12,-270.06 114.98,-260.19 107.98,-259.94" stroke="black"/>
</g>
<!-- 5581130617530758735 -->
<g class="node" id="node18">
<title>5581130617530758735</title>
<polygon fill="none" points="140.5,-136.99 86.5,-136.99 86.5,-100.99 140.5,-100.99 140.5,-136.99" stroke="black"/>
<text font-family="Times,serif" font-size="14.00" text-anchor="middle" x="113.5" y="-115.29">(0, 3)</text>
</g>
<!-- 5581130617530758735&#45;&gt;&#45;1496144773786405000 -->
<g class="edge" id="edge17">
<title>5581130617530758735-&gt;-1496144773786405000</title>
<path d="M113.5,-137.1C113.5,-144.58 113.5,-153.69 113.5,-162.72" fill="none" stroke="black"/>
<polygon fill="black" points="110,-162.77 113.5,-172.77 117,-162.77 110,-162.77" stroke="black"/>
</g>
<!-- &#45;1467910790690776579 -->
<g class="node" id="node19">
<title>-1467910790690776579</title>
<ellipse cx="309.5" cy="-32.5" fill="none" rx="32.49" ry="32.49" stroke="black"/>
<text font-family="Times,serif" font-size="14.00" text-anchor="middle" x="309.5" y="-28.8">ones</text>
</g>
<!-- &#45;1467910790690776579&#45;&gt;5581130617534253882 -->
<g class="edge" id="edge18">
<title>-1467910790690776579-&gt;5581130617534253882</title>
<path d="M309.12,-65.44C309.02,-73.67 308.92,-82.45 308.82,-90.43" fill="none" stroke="black"/>
<polygon fill="black" points="305.32,-90.65 308.7,-100.69 312.32,-90.73 305.32,-90.65" stroke="black"/>
</g>
<!-- &#45;1090831373445564154 -->
<g class="node" id="node20">
<title>-1090831373445564154</title>
<ellipse cx="226.5" cy="-32.5" fill="none" rx="32.49" ry="32.49" stroke="black"/>
<text font-family="Times,serif" font-size="14.00" text-anchor="middle" x="226.5" y="-28.8">ones</text>
</g>
<!-- &#45;1090831373445564154&#45;&gt;5581130617533088833 -->
<g class="edge" id="edge19">
<title>-1090831373445564154-&gt;5581130617533088833</title>
<path d="M226.5,-65.44C226.5,-73.67 226.5,-82.45 226.5,-90.43" fill="none" stroke="black"/>
<polygon fill="black" points="223,-90.69 226.5,-100.69 230,-90.69 223,-90.69" stroke="black"/>
</g>
<!-- 1062196149202694471 -->
<g class="node" id="node21">
<title>1062196149202694471</title>
<ellipse cx="32.5" cy="-32.5" fill="none" rx="32.49" ry="32.49" stroke="black"/>
<text font-family="Times,serif" font-size="14.00" text-anchor="middle" x="32.5" y="-28.8">ones</text>
</g>
<!-- 1062196149202694471&#45;&gt;5581130617531923784 -->
<g class="edge" id="edge20">
<title>1062196149202694471-&gt;5581130617531923784</title>
<path d="M32.88,-65.44C32.97,-73.67 33.08,-82.45 33.17,-90.43" fill="none" stroke="black"/>
<polygon fill="black" points="29.67,-90.73 33.29,-100.69 36.67,-90.65 29.67,-90.73" stroke="black"/>
</g>
<!-- &#45;5179843938900528704 -->
<g class="node" id="node22">
<title>-5179843938900528704</title>
<ellipse cx="115.5" cy="-32.5" fill="none" rx="32.49" ry="32.49" stroke="black"/>
<text font-family="Times,serif" font-size="14.00" text-anchor="middle" x="115.5" y="-28.8">ones</text>
</g>
<!-- &#45;5179843938900528704&#45;&gt;5581130617530758735 -->
<g class="edge" id="edge21">
<title>-5179843938900528704-&gt;5581130617530758735</title>
<path d="M114.74,-65.44C114.55,-73.67 114.34,-82.45 114.15,-90.43" fill="none" stroke="black"/>
<polygon fill="black" points="110.64,-90.61 113.91,-100.69 117.64,-90.78 110.64,-90.61" stroke="black"/>
</g>
</g>
</svg>