<svg height="1421pt" viewBox="0.00 0.00 618.34 1420.73" width="618pt" xmlns="http://www.w3.org/2000/svg" xmlns:xlink="http://www.w3.org/1999/xlink">
<g class="graph" id="graph0" transform="scale(1 1) rotate(0) translate(4 1416.73)">
<title>%3</title>
<polygon fill="white" points="-4,4 -4,-1416.73 614.34,-1416.73 614.34,4 -4,4" stroke="transparent"/>
<!-- &#45;3390212827048595351 -->
<g class="node" id="node1">
<title>-3390212827048595351</title>
<ellipse cx="237.8" cy="-1232.19" fill="none" rx="108.58" ry="108.58" stroke="black"/>
<text font-family="Times,serif" font-size="14.00" text-anchor="middle" x="237.8" y="-1228.49">mean_agg-aggregate</text>
</g>
<!-- 1905159148850177187 -->
<g class="node" id="node2">
<title>1905159148850177187</title>
<polygon fill="none" points="264.8,-1412.73 210.8,-1412.73 210.8,-1376.73 264.8,-1376.73 264.8,-1412.73" stroke="black"/>
<text font-family="Times,serif" font-size="14.00" text-anchor="middle" x="237.8" y="-1391.03">()</text>
</g>
<!-- &#45;3390212827048595351&#45;&gt;1905159148850177187 -->
<g class="edge" id="edge1">
<title>-3390212827048595351-&gt;1905159148850177187</title>
<path d="M237.8,-1341.16C237.8,-1350.31 237.8,-1358.91 237.8,-1366.4" fill="none" stroke="black"/>
<polygon fill="black" points="234.3,-1366.51 237.8,-1376.51 241.3,-1366.51 234.3,-1366.51" stroke="black"/>
</g>
<!-- &#45;4133256543172370576 -->
<g class="node" id="node3">
<title>-4133256543172370576</title>
<polygon fill="none" points="228.8,-1087.65 174.8,-1087.65 174.8,-1051.65 228.8,-1051.65 228.8,-1087.65" stroke="black"/>
<text font-family="Times,serif" font-size="14.00" text-anchor="middle" x="201.8" y="-1065.95">(0, 1)</text>
</g>
<!-- &#45;4133256543172370576&#45;&gt;&#45;3390212827048595351 -->
<g class="edge" id="edge2">
<title>-4133256543172370576-&gt;-3390212827048595351</title>
<path d="M205.65,-1087.83C207.37,-1095.52 209.57,-1105.31 212,-1116.14" fill="none" stroke="black"/>
<polygon fill="black" points="208.58,-1116.91 214.19,-1125.9 215.41,-1115.38 208.58,-1116.91" stroke="black"/>
</g>
<!-- &#45;4133256543173535625 -->
<g class="node" id="node4">
<title>-4133256543173535625</title>
<polygon fill="none" points="344.8,-1087.65 290.8,-1087.65 290.8,-1051.65 344.8,-1051.65 344.8,-1087.65" stroke="black"/>
<text font-family="Times,serif" font-size="14.00" text-anchor="middle" x="317.8" y="-1065.95">(0, 0)</text>
</g>
<!-- &#45;4133256543173535625&#45;&gt;&#45;3390212827048595351 -->
<g class="edge" id="edge3">
<title>-4133256543173535625-&gt;-3390212827048595351</title>
<path d="M309.23,-1087.83C304.33,-1097.68 297.72,-1110.94 290.49,-1125.45" fill="none" stroke="black"/>
<polygon fill="black" points="287.24,-1124.11 285.92,-1134.62 293.51,-1127.23 287.24,-1124.11" stroke="black"/>
</g>
<!-- &#45;1000231123888331827 -->
<g class="node" id="node5">
<title>-1000231123888331827</title>
<ellipse cx="361.8" cy="-901.26" fill="none" rx="114.28" ry="114.28" stroke="black"/>
<text font-family="Times,serif" font-size="14.00" text-anchor="middle" x="361.8" y="-897.56">mean_combine-partial</text>
</g>
<!-- &#45;1000231123888331827&#45;&gt;&#45;4133256543173535625 -->
<g class="edge" id="edge4">
<title>-1000231123888331827-&gt;-4133256543173535625</title>
<path d="M332.69,-1012.32C329.83,-1023.14 327.15,-1033.29 324.87,-1041.91" fill="none" stroke="black"/>
<polygon fill="black" points="321.48,-1041.04 322.3,-1051.6 328.24,-1042.83 321.48,-1041.04" stroke="black"/>
</g>
<!-- 2296363330562762912 -->
<g class="node" id="node6">
<title>2296363330562762912</title>
<polygon fill="none" points="284.8,-750.87 230.8,-750.87 230.8,-714.87 284.8,-714.87 284.8,-750.87" stroke="black"/>
<text font-family="Times,serif" font-size="14.00" text-anchor="middle" x="257.8" y="-729.17">(0, 1)</text>
</g>
<!-- 2296363330562762912&#45;&gt;&#45;1000231123888331827 -->
<g class="edge" id="edge5">
<title>2296363330562762912-&gt;-1000231123888331827</title>
<path d="M268.53,-751.05C275.58,-762.32 285.45,-778.11 296.15,-795.23" fill="none" stroke="black"/>
<polygon fill="black" points="293.19,-797.1 301.46,-803.72 299.12,-793.39 293.19,-797.1" stroke="black"/>
</g>
<!-- 2296363330561597863 -->
<g class="node" id="node7">
<title>2296363330561597863</title>
<polygon fill="none" points="477.8,-750.87 423.8,-750.87 423.8,-714.87 477.8,-714.87 477.8,-750.87" stroke="black"/>
<text font-family="Times,serif" font-size="14.00" text-anchor="middle" x="450.8" y="-729.17">(0, 0)</text>
</g>
<!-- 2296363330561597863&#45;&gt;&#45;1000231123888331827 -->
<g class="edge" id="edge6">
<title>2296363330561597863-&gt;-1000231123888331827</title>
<path d="M441.61,-751.05C436.11,-761.32 428.61,-775.34 420.4,-790.7" fill="none" stroke="black"/>
<polygon fill="black" points="417.12,-789.41 415.49,-799.88 423.29,-792.71 417.12,-789.41" stroke="black"/>
</g>
<!-- &#45;2035340342764606802 -->
<g class="node" id="node8">
<title>-2035340342764606802</title>
<ellipse cx="114.8" cy="-901.26" fill="none" rx="114.28" ry="114.28" stroke="black"/>
<text font-family="Times,serif" font-size="14.00" text-anchor="middle" x="114.8" y="-897.56">mean_combine-partial</text>
</g>
<!-- &#45;2035340342764606802&#45;&gt;&#45;4133256543172370576 -->
<g class="edge" id="edge7">
<title>-2035340342764606802-&gt;-4133256543172370576</title>
<path d="M167.41,-1002.89C174.99,-1017.39 182.19,-1031.15 188.02,-1042.31" fill="none" stroke="black"/>
<polygon fill="black" points="185.03,-1044.15 192.77,-1051.39 191.24,-1040.9 185.03,-1044.15" stroke="black"/>
</g>
<!-- 2296363330563927961 -->
<g class="node" id="node9">
<title>2296363330563927961</title>
<polygon fill="none" points="102.8,-750.87 48.8,-750.87 48.8,-714.87 102.8,-714.87 102.8,-750.87" stroke="black"/>
<text font-family="Times,serif" font-size="14.00" text-anchor="middle" x="75.8" y="-729.17">(0, 2)</text>
</g>
<!-- 2296363330563927961&#45;&gt;&#45;2035340342764606802 -->
<g class="edge" id="edge8">
<title>2296363330563927961-&gt;-2035340342764606802</title>
<path d="M79.82,-751.05C81.64,-758.82 83.97,-768.73 86.55,-779.75" fill="none" stroke="black"/>
<polygon fill="black" points="83.19,-780.75 88.88,-789.69 90,-779.15 83.19,-780.75" stroke="black"/>
</g>
<!-- 2296363330565093010 -->
<g class="node" id="node10">
<title>2296363330565093010</title>
<polygon fill="none" points="209.8,-750.87 155.8,-750.87 155.8,-714.87 209.8,-714.87 209.8,-750.87" stroke="black"/>
<text font-family="Times,serif" font-size="14.00" text-anchor="middle" x="182.8" y="-729.17">(0, 3)</text>
</g>
<!-- 2296363330565093010&#45;&gt;&#45;2035340342764606802 -->
<g class="edge" id="edge9">
<title>2296363330565093010-&gt;-2035340342764606802</title>
<path d="M175.77,-751.05C172.05,-760.16 167.13,-772.21 161.68,-785.53" fill="none" stroke="black"/>
<polygon fill="black" points="158.38,-784.35 157.84,-794.93 164.86,-787 158.38,-784.35" stroke="black"/>
</g>
<!-- 703380870658386653 -->
<g class="node" id="node11">
<title>703380870658386653</title>
<ellipse cx="540.8" cy="-609.32" fill="none" rx="69.59" ry="69.59" stroke="black"/>
<text font-family="Times,serif" font-size="14.00" text-anchor="middle" x="540.8" y="-605.62">mean_chunk</text>
</g>
<!-- 703380870658386653&#45;&gt;2296363330561597863 -->
<g class="edge" id="edge10">
<title>703380870658386653-&gt;2296363330561597863</title>
<path d="M499.75,-665.76C489.15,-680.07 478.26,-694.78 469.45,-706.67" fill="none" stroke="black"/>
<polygon fill="black" points="466.58,-704.67 463.44,-714.79 472.2,-708.84 466.58,-704.67" stroke="black"/>
</g>
<!-- 7187269446039465275 -->
<g class="node" id="node12">
<title>7187269446039465275</title>
<polygon fill="none" points="567.8,-503.78 513.8,-503.78 513.8,-467.78 567.8,-467.78 567.8,-503.78" stroke="black"/>
<text font-family="Times,serif" font-size="14.00" text-anchor="middle" x="540.8" y="-482.08">(0, 0)</text>
</g>
<!-- 7187269446039465275&#45;&gt;703380870658386653 -->
<g class="edge" id="edge11">
<title>7187269446039465275-&gt;703380870658386653</title>
<path d="M540.8,-503.94C540.8,-511.13 540.8,-520.03 540.8,-529.59" fill="none" stroke="black"/>
<polygon fill="black" points="537.3,-529.75 540.8,-539.75 544.3,-529.75 537.3,-529.75" stroke="black"/>
</g>
<!-- &#45;730838483268197122 -->
<g class="node" id="node13">
<title>-730838483268197122</title>
<ellipse cx="226.8" cy="-609.32" fill="none" rx="69.59" ry="69.59" stroke="black"/>
<text font-family="Times,serif" font-size="14.00" text-anchor="middle" x="226.8" y="-605.62">mean_chunk</text>
</g>
<!-- &#45;730838483268197122&#45;&gt;2296363330562762912 -->
<g class="edge" id="edge12">
<title>-730838483268197122-&gt;2296363330562762912</title>
<path d="M243.75,-676.79C246.25,-686.61 248.71,-696.23 250.84,-704.61" fill="none" stroke="black"/>
<polygon fill="black" points="247.5,-705.66 253.36,-714.49 254.28,-703.93 247.5,-705.66" stroke="black"/>
</g>
<!-- 7187269446040630324 -->
<g class="node" id="node14">
<title>7187269446040630324</title>
<polygon fill="none" points="253.8,-503.78 199.8,-503.78 199.8,-467.78 253.8,-467.78 253.8,-503.78" stroke="black"/>
<text font-family="Times,serif" font-size="14.00" text-anchor="middle" x="226.8" y="-482.08">(0, 1)</text>
</g>
<!-- 7187269446040630324&#45;&gt;&#45;730838483268197122 -->
<g class="edge" id="edge13">
<title>7187269446040630324-&gt;-730838483268197122</title>
<path d="M226.8,-503.94C226.8,-511.13 226.8,-520.03 226.8,-529.59" fill="none" stroke="black"/>
<polygon fill="black" points="223.3,-529.75 226.8,-539.75 230.3,-529.75 223.3,-529.75" stroke="black"/>
</g>
<!-- &#45;1765966175043888097 -->
<g class="node" id="node15">
<title>-1765966175043888097</title>
<ellipse cx="69.8" cy="-609.32" fill="none" rx="69.59" ry="69.59" stroke="black"/>
<text font-family="Times,serif" font-size="14.00" text-anchor="middle" x="69.8" y="-605.62">mean_chunk</text>
</g>
<!-- &#45;1765966175043888097&#45;&gt;2296363330563927961 -->
<g class="edge" id="edge14">
<title>-1765966175043888097-&gt;2296363330563927961</title>
<path d="M73.18,-678.91C73.63,-687.99 74.07,-696.83 74.45,-704.6" fill="none" stroke="black"/>
<polygon fill="black" points="70.96,-704.99 74.95,-714.8 77.96,-704.64 70.96,-704.99" stroke="black"/>
</g>
<!-- 7187269446041795373 -->
<g class="node" id="node16">
<title>7187269446041795373</title>
<polygon fill="none" points="96.8,-503.78 42.8,-503.78 42.8,-467.78 96.8,-467.78 96.8,-503.78" stroke="black"/>
<text font-family="Times,serif" font-size="14.00" text-anchor="middle" x="69.8" y="-482.08">(0, 2)</text>
</g>
<!-- 7187269446041795373&#45;&gt;&#45;1765966175043888097 -->
<g class="edge" id="edge15">
<title>7187269446041795373-&gt;-1765966175043888097</title>
<path d="M69.8,-503.94C69.8,-511.13 69.8,-520.03 69.8,-529.59" fill="none" stroke="black"/>
<polygon fill="black" points="66.3,-529.75 69.8,-539.75 73.3,-529.75 66.3,-529.75" stroke="black"/>
</g>
<!-- &#45;4890935718427832672 -->
<g class="node" id="node17">
<title>-4890935718427832672</title>
<ellipse cx="383.8" cy="-609.32" fill="none" rx="69.59" ry="69.59" stroke="black"/>
<text font-family="Times,serif" font-size="14.00" text-anchor="middle" x="383.8" y="-605.62">mean_chunk</text>
</g>
<!-- &#45;4890935718427832672&#45;&gt;2296363330565093010 -->
<g class="edge" id="edge16">
<title>-4890935718427832672-&gt;2296363330565093010</title>
<path d="M334.02,-658.12C325,-665.58 315.4,-672.81 305.8,-678.87 271.45,-700.54 259.08,-698.75 221.8,-714.87 220.97,-715.23 220.12,-715.59 219.28,-715.96" fill="none" stroke="black"/>
<polygon fill="black" points="217.84,-712.77 210.06,-719.96 220.63,-719.19 217.84,-712.77" stroke="black"/>
</g>
<!-- 7187269446042960422 -->
<g class="node" id="node18">
<title>7187269446042960422</title>
<polygon fill="none" points="410.8,-503.78 356.8,-503.78 356.8,-467.78 410.8,-467.78 410.8,-503.78" stroke="black"/>
<text font-family="Times,serif" font-size="14.00" text-anchor="middle" x="383.8" y="-482.08">(0, 3)</text>
</g>
<!-- 7187269446042960422&#45;&gt;&#45;4890935718427832672 -->
<g class="edge" id="edge17">
<title>7187269446042960422-&gt;-4890935718427832672</title>
<path d="M383.8,-503.94C383.8,-511.13 383.8,-520.03 383.8,-529.59" fill="none" stroke="black"/>
<polygon fill="black" points="380.3,-529.75 383.8,-539.75 387.3,-529.75 380.3,-529.75" stroke="black"/>
</g>
<!-- 926000243056071265 -->
<g class="node" id="node19">
<title>926000243056071265</title>
<ellipse cx="540.8" cy="-403.18" fill="none" rx="28.7" ry="28.7" stroke="black"/>
<text font-family="Times,serif" font-size="14.00" text-anchor="middle" x="540.8" y="-399.48">mul</text>
</g>
<!-- 926000243056071265&#45;&gt;7187269446039465275 -->
<g class="edge" id="edge18">
<title>926000243056071265-&gt;7187269446039465275</title>
<path d="M540.8,-431.92C540.8,-440.15 540.8,-449.16 540.8,-457.37" fill="none" stroke="black"/>
<polygon fill="black" points="537.3,-457.57 540.8,-467.57 544.3,-457.57 537.3,-457.57" stroke="black"/>
</g>
<!-- 6324570485870042113 -->
<g class="node" id="node20">
<title>6324570485870042113</title>
<polygon fill="none" points="582.8,-136.99 528.8,-136.99 528.8,-100.99 582.8,-100.99 582.8,-136.99" stroke="black"/>
<text font-family="Times,serif" font-size="14.00" text-anchor="middle" x="555.8" y="-115.29">(0, 0)</text>
</g>
<!-- 6324570485870042113&#45;&gt;926000243056071265 -->
<g class="edge" id="edge19">
<title>6324570485870042113-&gt;926000243056071265</title>
<path d="M563.69,-137.25C567.9,-147.42 572.65,-160.67 574.8,-172.99 586.64,-241.16 567.23,-321.18 553.2,-366.36" fill="none" stroke="black"/>
<polygon fill="black" points="549.84,-365.4 550.13,-375.99 556.51,-367.53 549.84,-365.4" stroke="black"/>
</g>
<!-- &#45;2561942133514368175 -->
<g class="node" id="node35">
<title>-2561942133514368175</title>
<ellipse cx="518.8" cy="-219.79" fill="none" rx="46.59" ry="46.59" stroke="black"/>
<text font-family="Times,serif" font-size="14.00" text-anchor="middle" x="518.8" y="-216.09">getitem</text>
</g>
<!-- 6324570485870042113&#45;&gt;&#45;2561942133514368175 -->
<g class="edge" id="edge35">
<title>6324570485870042113-&gt;-2561942133514368175</title>
<path d="M549.35,-137.2C546.31,-145.33 542.49,-155.52 538.6,-165.91" fill="none" stroke="black"/>
<polygon fill="black" points="535.25,-164.86 535.02,-175.46 541.81,-167.32 535.25,-164.86" stroke="black"/>
</g>
<!-- &#45;463781001495539914 -->
<g class="node" id="node21">
<title>-463781001495539914</title>
<polygon fill="none" points="545.8,-338.59 491.8,-338.59 491.8,-302.59 545.8,-302.59 545.8,-338.59" stroke="black"/>
<text font-family="Times,serif" font-size="14.00" text-anchor="middle" x="518.8" y="-316.89">(0, 0)</text>
</g>
<!-- &#45;463781001495539914&#45;&gt;926000243056071265 -->
<g class="edge" id="edge20">
<title>-463781001495539914-&gt;926000243056071265</title>
<path d="M523.46,-338.68C525.59,-346.48 528.2,-356.05 530.75,-365.37" fill="none" stroke="black"/>
<polygon fill="black" points="527.44,-366.56 533.45,-375.28 534.2,-364.71 527.44,-366.56" stroke="black"/>
</g>
<!-- 7678255888072504706 -->
<g class="node" id="node22">
<title>7678255888072504706</title>
<ellipse cx="226.8" cy="-403.18" fill="none" rx="28.7" ry="28.7" stroke="black"/>
<text font-family="Times,serif" font-size="14.00" text-anchor="middle" x="226.8" y="-399.48">mul</text>
</g>
<!-- 7678255888072504706&#45;&gt;7187269446040630324 -->
<g class="edge" id="edge21">
<title>7678255888072504706-&gt;7187269446040630324</title>
<path d="M226.8,-431.92C226.8,-440.15 226.8,-449.16 226.8,-457.37" fill="none" stroke="black"/>
<polygon fill="black" points="223.3,-457.57 226.8,-467.57 230.3,-457.57 223.3,-457.57" stroke="black"/>
</g>
<!-- 6324570485871207162 -->
<g class="node" id="node23">
<title>6324570485871207162</title>
<polygon fill="none" points="88.8,-136.99 34.8,-136.99 34.8,-100.99 88.8,-100.99 88.8,-136.99" stroke="black"/>
<text font-family="Times,serif" font-size="14.00" text-anchor="middle" x="61.8" y="-115.29">(0, 1)</text>
</g>
<!-- 6324570485871207162&#45;&gt;7678255888072504706 -->
<g class="edge" id="edge22">
<title>6324570485871207162-&gt;7678255888072504706</title>
<path d="M76.2,-137.14C84.42,-147.27 94.67,-160.52 102.8,-172.99 125.78,-208.29 180.94,-313.52 209.31,-368.26" fill="none" stroke="black"/>
<polygon fill="black" points="206.24,-369.95 213.95,-377.22 212.46,-366.73 206.24,-369.95" stroke="black"/>
</g>
<!-- &#45;4267936594393041550 -->
<g class="node" id="node36">
<title>-4267936594393041550</title>
<ellipse cx="46.8" cy="-219.79" fill="none" rx="46.59" ry="46.59" stroke="black"/>
<text font-family="Times,serif" font-size="14.00" text-anchor="middle" x="46.8" y="-216.09">getitem</text>
</g>
<!-- 6324570485871207162&#45;&gt;&#45;4267936594393041550 -->
<g class="edge" id="edge37">
<title>6324570485871207162-&gt;-4267936594393041550</title>
<path d="M59.18,-137.2C58.05,-144.67 56.65,-153.88 55.21,-163.38" fill="none" stroke="black"/>
<polygon fill="black" points="51.74,-162.93 53.7,-173.34 58.66,-163.98 51.74,-162.93" stroke="black"/>
</g>
<!-- &#45;463781001496704963 -->
<g class="node" id="node24">
<title>-463781001496704963</title>
<polygon fill="none" points="257.8,-338.59 203.8,-338.59 203.8,-302.59 257.8,-302.59 257.8,-338.59" stroke="black"/>
<text font-family="Times,serif" font-size="14.00" text-anchor="middle" x="230.8" y="-316.89">(0, 1)</text>
</g>
<!-- &#45;463781001496704963&#45;&gt;7678255888072504706 -->
<g class="edge" id="edge23">
<title>-463781001496704963-&gt;7678255888072504706</title>
<path d="M229.95,-338.68C229.58,-346.12 229.13,-355.16 228.69,-364.06" fill="none" stroke="black"/>
<polygon fill="black" points="225.18,-364.17 228.18,-374.33 232.17,-364.52 225.18,-364.17" stroke="black"/>
</g>
<!-- 6638404698432662531 -->
<g class="node" id="node25">
<title>6638404698432662531</title>
<ellipse cx="69.8" cy="-403.18" fill="none" rx="28.7" ry="28.7" stroke="black"/>
<text font-family="Times,serif" font-size="14.00" text-anchor="middle" x="69.8" y="-399.48">mul</text>
</g>
<!-- 6638404698432662531&#45;&gt;7187269446041795373 -->
<g class="edge" id="edge24">
<title>6638404698432662531-&gt;7187269446041795373</title>
<path d="M69.8,-431.92C69.8,-440.15 69.8,-449.16 69.8,-457.37" fill="none" stroke="black"/>
<polygon fill="black" points="66.3,-457.57 69.8,-467.57 73.3,-457.57 66.3,-457.57" stroke="black"/>
</g>
<!-- &#45;463781001497870012 -->
<g class="node" id="node26">
<title>-463781001497870012</title>
<polygon fill="none" points="81.8,-338.59 27.8,-338.59 27.8,-302.59 81.8,-302.59 81.8,-338.59" stroke="black"/>
<text font-family="Times,serif" font-size="14.00" text-anchor="middle" x="54.8" y="-316.89">(0, 2)</text>
</g>
<!-- &#45;463781001497870012&#45;&gt;6638404698432662531 -->
<g class="edge" id="edge25">
<title>-463781001497870012-&gt;6638404698432662531</title>
<path d="M57.98,-338.68C59.42,-346.42 61.18,-355.88 62.9,-365.12" fill="none" stroke="black"/>
<polygon fill="black" points="59.46,-365.78 64.73,-374.97 66.34,-364.5 59.46,-365.78" stroke="black"/>
</g>
<!-- 6324570485867712015 -->
<g class="node" id="node27">
<title>6324570485867712015</title>
<polygon fill="none" points="223.8,-136.99 169.8,-136.99 169.8,-100.99 223.8,-100.99 223.8,-136.99" stroke="black"/>
<text font-family="Times,serif" font-size="14.00" text-anchor="middle" x="196.8" y="-115.29">(0, 2)</text>
</g>
<!-- 6324570485867712015&#45;&gt;6638404698432662531 -->
<g class="edge" id="edge26">
<title>6324570485867712015-&gt;6638404698432662531</title>
<path d="M189.04,-137.22C168.59,-182.66 112.9,-306.42 85.47,-367.35" fill="none" stroke="black"/>
<polygon fill="black" points="82.24,-366.01 81.33,-376.57 88.62,-368.88 82.24,-366.01" stroke="black"/>
</g>
<!-- &#45;5309004511856824525 -->
<g class="node" id="node37">
<title>-5309004511856824525</title>
<ellipse cx="234.8" cy="-219.79" fill="none" rx="46.59" ry="46.59" stroke="black"/>
<text font-family="Times,serif" font-size="14.00" text-anchor="middle" x="234.8" y="-216.09">getitem</text>
</g>
<!-- 6324570485867712015&#45;&gt;&#45;5309004511856824525 -->
<g class="edge" id="edge39">
<title>6324570485867712015-&gt;-5309004511856824525</title>
<path d="M203.41,-137.2C206.57,-145.41 210.54,-155.73 214.58,-166.23" fill="none" stroke="black"/>
<polygon fill="black" points="211.43,-167.8 218.29,-175.88 217.97,-165.29 211.43,-167.8" stroke="black"/>
</g>
<!-- 6179193880048237556 -->
<g class="node" id="node28">
<title>6179193880048237556</title>
<ellipse cx="383.8" cy="-403.18" fill="none" rx="28.7" ry="28.7" stroke="black"/>
<text font-family="Times,serif" font-size="14.00" text-anchor="middle" x="383.8" y="-399.48">mul</text>
</g>
<!-- 6179193880048237556&#45;&gt;7187269446042960422 -->
<g class="edge" id="edge27">
<title>6179193880048237556-&gt;7187269446042960422</title>
<path d="M383.8,-431.92C383.8,-440.15 383.8,-449.16 383.8,-457.37" fill="none" stroke="black"/>
<polygon fill="black" points="380.3,-457.57 383.8,-467.57 387.3,-457.57 380.3,-457.57" stroke="black"/>
</g>
<!-- 6324570485868877064 -->
<g class="node" id="node29">
<title>6324570485868877064</title>
<polygon fill="none" points="395.8,-136.99 341.8,-136.99 341.8,-100.99 395.8,-100.99 395.8,-136.99" stroke="black"/>
<text font-family="Times,serif" font-size="14.00" text-anchor="middle" x="368.8" y="-115.29">(0, 3)</text>
</g>
<!-- 6324570485868877064&#45;&gt;6179193880048237556 -->
<g class="edge" id="edge28">
<title>6324570485868877064-&gt;6179193880048237556</title>
<path d="M361.32,-137.29C357.32,-147.47 352.82,-160.72 350.8,-172.99 339.53,-241.21 358.3,-321.22 371.83,-366.38" fill="none" stroke="black"/>
<polygon fill="black" points="368.5,-367.48 374.79,-376.01 375.19,-365.42 368.5,-367.48" stroke="black"/>
</g>
<!-- 2980347113590190116 -->
<g class="node" id="node38">
<title>2980347113590190116</title>
<ellipse cx="406.8" cy="-219.79" fill="none" rx="46.59" ry="46.59" stroke="black"/>
<text font-family="Times,serif" font-size="14.00" text-anchor="middle" x="406.8" y="-216.09">getitem</text>
</g>
<!-- 6324570485868877064&#45;&gt;2980347113590190116 -->
<g class="edge" id="edge41">
<title>6324570485868877064-&gt;2980347113590190116</title>
<path d="M375.41,-137.2C378.57,-145.41 382.54,-155.73 386.58,-166.23" fill="none" stroke="black"/>
<polygon fill="black" points="383.43,-167.8 390.29,-175.88 389.97,-165.29 383.43,-167.8" stroke="black"/>
</g>
<!-- &#45;463781001499035061 -->
<g class="node" id="node30">
<title>-463781001499035061</title>
<polygon fill="none" points="433.8,-338.59 379.8,-338.59 379.8,-302.59 433.8,-302.59 433.8,-338.59" stroke="black"/>
<text font-family="Times,serif" font-size="14.00" text-anchor="middle" x="406.8" y="-316.89">(0, 3)</text>
</g>
<!-- &#45;463781001499035061&#45;&gt;6179193880048237556 -->
<g class="edge" id="edge29">
<title>-463781001499035061-&gt;6179193880048237556</title>
<path d="M401.92,-338.68C399.65,-346.64 396.85,-356.42 394.15,-365.91" fill="none" stroke="black"/>
<polygon fill="black" points="390.76,-365.02 391.38,-375.6 397.49,-366.94 390.76,-365.02" stroke="black"/>
</g>
<!-- 8752595454076219847 -->
<g class="node" id="node31">
<title>8752595454076219847</title>
<ellipse cx="555.8" cy="-32.5" fill="none" rx="32.49" ry="32.49" stroke="black"/>
<text font-family="Times,serif" font-size="14.00" text-anchor="middle" x="555.8" y="-28.8">ones</text>
</g>
<!-- 8752595454076219847&#45;&gt;6324570485870042113 -->
<g class="edge" id="edge30">
<title>8752595454076219847-&gt;6324570485870042113</title>
<path d="M555.8,-65.44C555.8,-73.67 555.8,-82.45 555.8,-90.43" fill="none" stroke="black"/>
<polygon fill="black" points="552.3,-90.69 555.8,-100.69 559.3,-90.69 552.3,-90.69" stroke="black"/>
</g>
<!-- &#45;2269711986493058328 -->
<g class="node" id="node32">
<title>-2269711986493058328</title>
<ellipse cx="61.8" cy="-32.5" fill="none" rx="32.49" ry="32.49" stroke="black"/>
<text font-family="Times,serif" font-size="14.00" text-anchor="middle" x="61.8" y="-28.8">ones</text>
</g>
<!-- &#45;2269711986493058328&#45;&gt;6324570485871207162 -->
<g class="edge" id="edge31">
<title>-2269711986493058328-&gt;6324570485871207162</title>
<path d="M61.8,-65.44C61.8,-73.67 61.8,-82.45 61.8,-90.43" fill="none" stroke="black"/>
<polygon fill="black" points="58.3,-90.69 61.8,-100.69 65.3,-90.69 58.3,-90.69" stroke="black"/>
</g>
<!-- 1692611416770421797 -->
<g class="node" id="node33">
<title>1692611416770421797</title>
<ellipse cx="196.8" cy="-32.5" fill="none" rx="32.49" ry="32.49" stroke="black"/>
<text font-family="Times,serif" font-size="14.00" text-anchor="middle" x="196.8" y="-28.8">ones</text>
</g>
<!-- 1692611416770421797&#45;&gt;6324570485867712015 -->
<g class="edge" id="edge32">
<title>1692611416770421797-&gt;6324570485867712015</title>
<path d="M196.8,-65.44C196.8,-73.67 196.8,-82.45 196.8,-90.43" fill="none" stroke="black"/>
<polygon fill="black" points="193.3,-90.69 196.8,-100.69 200.3,-90.69 193.3,-90.69" stroke="black"/>
</g>
<!-- 664841520634402822 -->
<g class="node" id="node34">
<title>664841520634402822</title>
<ellipse cx="368.8" cy="-32.5" fill="none" rx="32.49" ry="32.49" stroke="black"/>
<text font-family="Times,serif" font-size="14.00" text-anchor="middle" x="368.8" y="-28.8">ones</text>
</g>
<!-- 664841520634402822&#45;&gt;6324570485868877064 -->
<g class="edge" id="edge33">
<title>664841520634402822-&gt;6324570485868877064</title>
<path d="M368.8,-65.44C368.8,-73.67 368.8,-82.45 368.8,-90.43" fill="none" stroke="black"/>
<polygon fill="black" points="365.3,-90.69 368.8,-100.69 372.3,-90.69 365.3,-90.69" stroke="black"/>
</g>
<!-- &#45;2561942133514368175&#45;&gt;&#45;463781001499035061 -->
<g class="edge" id="edge34">
<title>-2561942133514368175-&gt;-463781001499035061</title>
<path d="M483.97,-251.51C467.93,-265.65 449.18,-282.2 434.17,-295.44" fill="none" stroke="black"/>
<polygon fill="black" points="431.45,-293.17 426.26,-302.41 436.08,-298.42 431.45,-293.17" stroke="black"/>
</g>
<!-- &#45;4267936594393041550&#45;&gt;&#45;463781001497870012 -->
<g class="edge" id="edge36">
<title>-4267936594393041550-&gt;-463781001497870012</title>
<path d="M50.51,-266.72C51.22,-275.45 51.94,-284.32 52.58,-292.25" fill="none" stroke="black"/>
<polygon fill="black" points="49.1,-292.67 53.4,-302.36 56.08,-292.11 49.1,-292.67" stroke="black"/>
</g>
<!-- &#45;5309004511856824525&#45;&gt;&#45;463781001496704963 -->
<g class="edge" id="edge38">
<title>-5309004511856824525-&gt;-463781001496704963</title>
<path d="M232.94,-266.72C232.58,-275.45 232.22,-284.32 231.9,-292.25" fill="none" stroke="black"/>
<polygon fill="black" points="228.4,-292.22 231.49,-302.36 235.4,-292.51 228.4,-292.22" stroke="black"/>
</g>
<!-- 2980347113590190116&#45;&gt;&#45;463781001495539914 -->
<g class="edge" id="edge40">
<title>2980347113590190116-&gt;-463781001495539914</title>
<path d="M441.62,-251.51C457.66,-265.65 476.41,-282.2 491.42,-295.44" fill="none" stroke="black"/>
<polygon fill="black" points="489.51,-298.42 499.33,-302.41 494.14,-293.17 489.51,-298.42" stroke="black"/>
</g>
</g>
</svg>