<svg height="145pt" viewBox="0.00 0.00 321.99 144.99" width="322pt" xmlns="http://www.w3.org/2000/svg" xmlns:xlink="http://www.w3.org/1999/xlink">
<g class="graph" id="graph0" transform="scale(1 1) rotate(0) translate(4 140.99)">
<title>%3</title>
<polygon fill="white" points="-4,4 -4,-140.99 317.99,-140.99 317.99,4 -4,4" stroke="transparent"/>
<!-- &#45;4618841468769423831 -->
<g class="node" id="node1">
<title>-4618841468769423831</title>
<ellipse cx="32.5" cy="-32.5" fill="none" rx="32.49" ry="32.49" stroke="black"/>
<text font-family="Times,serif" font-size="14.00" text-anchor="middle" x="32.5" y="-28.8">ones</text>
</g>
<!-- 5444340301516899371 -->
<g class="node" id="node2">
<title>5444340301516899371</title>
<polygon fill="none" points="59.5,-136.99 5.5,-136.99 5.5,-100.99 59.5,-100.99 59.5,-136.99" stroke="black"/>
<text font-family="Times,serif" font-size="14.00" text-anchor="middle" x="32.5" y="-115.29">(0, 0)</text>
</g>
<!-- &#45;4618841468769423831&#45;&gt;5444340301516899371 -->
<g class="edge" id="edge1">
<title>-4618841468769423831-&gt;5444340301516899371</title>
<path d="M32.5,-65.44C32.5,-73.67 32.5,-82.45 32.5,-90.43" fill="none" stroke="black"/>
<polygon fill="black" points="29,-90.69 32.5,-100.69 36,-90.69 29,-90.69" stroke="black"/>
</g>
<!-- &#45;5958907046457117606 -->
<g class="node" id="node3">
<title>-5958907046457117606</title>
<ellipse cx="115.5" cy="-32.5" fill="none" rx="32.49" ry="32.49" stroke="black"/>
<text font-family="Times,serif" font-size="14.00" text-anchor="middle" x="115.5" y="-28.8">ones</text>
</g>
<!-- 5444340301518064420 -->
<g class="node" id="node4">
<title>5444340301518064420</title>
<polygon fill="none" points="142.5,-136.99 88.5,-136.99 88.5,-100.99 142.5,-100.99 142.5,-136.99" stroke="black"/>
<text font-family="Times,serif" font-size="14.00" text-anchor="middle" x="115.5" y="-115.29">(0, 1)</text>
</g>
<!-- &#45;5958907046457117606&#45;&gt;5444340301518064420 -->
<g class="edge" id="edge2">
<title>-5958907046457117606-&gt;5444340301518064420</title>
<path d="M115.5,-65.44C115.5,-73.67 115.5,-82.45 115.5,-90.43" fill="none" stroke="black"/>
<polygon fill="black" points="112,-90.69 115.5,-100.69 119,-90.69 112,-90.69" stroke="black"/>
</g>
<!-- 2179314377541982219 -->
<g class="node" id="node5">
<title>2179314377541982219</title>
<ellipse cx="198.5" cy="-32.5" fill="none" rx="32.49" ry="32.49" stroke="black"/>
<text font-family="Times,serif" font-size="14.00" text-anchor="middle" x="198.5" y="-28.8">ones</text>
</g>
<!-- 5444340301519229469 -->
<g class="node" id="node6">
<title>5444340301519229469</title>
<polygon fill="none" points="225.5,-136.99 171.5,-136.99 171.5,-100.99 225.5,-100.99 225.5,-136.99" stroke="black"/>
<text font-family="Times,serif" font-size="14.00" text-anchor="middle" x="198.5" y="-115.29">(0, 2)</text>
</g>
<!-- 2179314377541982219&#45;&gt;5444340301519229469 -->
<g class="edge" id="edge3">
<title>2179314377541982219-&gt;5444340301519229469</title>
<path d="M198.5,-65.44C198.5,-73.67 198.5,-82.45 198.5,-90.43" fill="none" stroke="black"/>
<polygon fill="black" points="195,-90.69 198.5,-100.69 202,-90.69 195,-90.69" stroke="black"/>
</g>
<!-- 839829977146806844 -->
<g class="node" id="node7">
<title>839829977146806844</title>
<ellipse cx="281.5" cy="-32.5" fill="none" rx="32.49" ry="32.49" stroke="black"/>
<text font-family="Times,serif" font-size="14.00" text-anchor="middle" x="281.5" y="-28.8">ones</text>
</g>
<!-- 5444340301520394518 -->
<g class="node" id="node8">
<title>5444340301520394518</title>
<polygon fill="none" points="308.5,-136.99 254.5,-136.99 254.5,-100.99 308.5,-100.99 308.5,-136.99" stroke="black"/>
<text font-family="Times,serif" font-size="14.00" text-anchor="middle" x="281.5" y="-115.29">(0, 3)</text>
</g>
<!-- 839829977146806844&#45;&gt;5444340301520394518 -->
<g class="edge" id="edge4">
<title>839829977146806844-&gt;5444340301520394518</title>
<path d="M281.5,-65.44C281.5,-73.67 281.5,-82.45 281.5,-90.43" fill="none" stroke="black"/>
<polygon fill="black" points="278,-90.69 281.5,-100.69 285,-90.69 278,-90.69" stroke="black"/>
</g>
</g>
</svg>