<svg height="1421pt" viewBox="0.00 0.00 618.09 1420.73" width="618pt" xmlns="http://www.w3.org/2000/svg" xmlns:xlink="http://www.w3.org/1999/xlink">
<g class="graph" id="graph0" transform="scale(1 1) rotate(0) translate(4 1416.73)">
<title>%3</title>
<polygon fill="white" points="-4,4 -4,-1416.73 614.09,-1416.73 614.09,4 -4,4" stroke="transparent"/>
<!-- 3757600662728737044 -->
<g class="node" id="node1">
<title>3757600662728737044</title>
<ellipse cx="237.54" cy="-1232.19" fill="none" rx="108.58" ry="108.58" stroke="black"/>
<text font-family="Times,serif" font-size="14.00" text-anchor="middle" x="237.54" y="-1228.49">mean_agg-aggregate</text>
</g>
<!-- &#45;7642154293811447917 -->
<g class="node" id="node2">
<title>-7642154293811447917</title>
<polygon fill="none" points="264.54,-1412.73 210.54,-1412.73 210.54,-1376.73 264.54,-1376.73 264.54,-1412.73" stroke="black"/>
<text font-family="Times,serif" font-size="14.00" text-anchor="middle" x="237.54" y="-1391.03">()</text>
</g>
<!-- 3757600662728737044&#45;&gt;&#45;7642154293811447917 -->
<g class="edge" id="edge1">
<title>3757600662728737044-&gt;-7642154293811447917</title>
<path d="M237.54,-1341.16C237.54,-1350.31 237.54,-1358.91 237.54,-1366.4" fill="none" stroke="black"/>
<polygon fill="black" points="234.04,-1366.51 237.54,-1376.51 241.04,-1366.51 234.04,-1366.51" stroke="black"/>
</g>
<!-- 460205287204345669 -->
<g class="node" id="node3">
<title>460205287204345669</title>
<polygon fill="none" points="228.54,-1087.65 174.54,-1087.65 174.54,-1051.65 228.54,-1051.65 228.54,-1087.65" stroke="black"/>
<text font-family="Times,serif" font-size="14.00" text-anchor="middle" x="201.54" y="-1065.95">(0, 0)</text>
</g>
<!-- 460205287204345669&#45;&gt;3757600662728737044 -->
<g class="edge" id="edge2">
<title>460205287204345669-&gt;3757600662728737044</title>
<path d="M205.4,-1087.83C207.12,-1095.52 209.32,-1105.31 211.75,-1116.14" fill="none" stroke="black"/>
<polygon fill="black" points="208.33,-1116.91 213.93,-1125.9 215.16,-1115.38 208.33,-1116.91" stroke="black"/>
</g>
<!-- 460205287205510718 -->
<g class="node" id="node4">
<title>460205287205510718</title>
<polygon fill="none" points="344.54,-1087.65 290.54,-1087.65 290.54,-1051.65 344.54,-1051.65 344.54,-1087.65" stroke="black"/>
<text font-family="Times,serif" font-size="14.00" text-anchor="middle" x="317.54" y="-1065.95">(0, 1)</text>
</g>
<!-- 460205287205510718&#45;&gt;3757600662728737044 -->
<g class="edge" id="edge3">
<title>460205287205510718-&gt;3757600662728737044</title>
<path d="M308.98,-1087.83C304.08,-1097.68 297.46,-1110.94 290.23,-1125.45" fill="none" stroke="black"/>
<polygon fill="black" points="286.99,-1124.11 285.66,-1134.62 293.26,-1127.23 286.99,-1124.11" stroke="black"/>
</g>
<!-- 6934690707874628426 -->
<g class="node" id="node5">
<title>6934690707874628426</title>
<ellipse cx="114.54" cy="-901.26" fill="none" rx="114.28" ry="114.28" stroke="black"/>
<text font-family="Times,serif" font-size="14.00" text-anchor="middle" x="114.54" y="-897.56">mean_combine-partial</text>
</g>
<!-- 6934690707874628426&#45;&gt;460205287204345669 -->
<g class="edge" id="edge4">
<title>6934690707874628426-&gt;460205287204345669</title>
<path d="M167.16,-1002.89C174.74,-1017.39 181.94,-1031.15 187.77,-1042.31" fill="none" stroke="black"/>
<polygon fill="black" points="184.78,-1044.15 192.52,-1051.39 190.99,-1040.9 184.78,-1044.15" stroke="black"/>
</g>
<!-- 329161111580338521 -->
<g class="node" id="node6">
<title>329161111580338521</title>
<polygon fill="none" points="102.54,-750.87 48.54,-750.87 48.54,-714.87 102.54,-714.87 102.54,-750.87" stroke="black"/>
<text font-family="Times,serif" font-size="14.00" text-anchor="middle" x="75.54" y="-729.17">(0, 0)</text>
</g>
<!-- 329161111580338521&#45;&gt;6934690707874628426 -->
<g class="edge" id="edge5">
<title>329161111580338521-&gt;6934690707874628426</title>
<path d="M79.57,-751.05C81.39,-758.82 83.72,-768.73 86.3,-779.75" fill="none" stroke="black"/>
<polygon fill="black" points="82.94,-780.75 88.63,-789.69 89.75,-779.15 82.94,-780.75" stroke="black"/>
</g>
<!-- 329161111581503570 -->
<g class="node" id="node7">
<title>329161111581503570</title>
<polygon fill="none" points="209.54,-750.87 155.54,-750.87 155.54,-714.87 209.54,-714.87 209.54,-750.87" stroke="black"/>
<text font-family="Times,serif" font-size="14.00" text-anchor="middle" x="182.54" y="-729.17">(0, 1)</text>
</g>
<!-- 329161111581503570&#45;&gt;6934690707874628426 -->
<g class="edge" id="edge6">
<title>329161111581503570-&gt;6934690707874628426</title>
<path d="M175.52,-751.05C171.8,-760.16 166.87,-772.21 161.43,-785.53" fill="none" stroke="black"/>
<polygon fill="black" points="158.13,-784.35 157.59,-794.93 164.61,-787 158.13,-784.35" stroke="black"/>
</g>
<!-- 4771368369731086401 -->
<g class="node" id="node8">
<title>4771368369731086401</title>
<ellipse cx="361.54" cy="-901.26" fill="none" rx="114.28" ry="114.28" stroke="black"/>
<text font-family="Times,serif" font-size="14.00" text-anchor="middle" x="361.54" y="-897.56">mean_combine-partial</text>
</g>
<!-- 4771368369731086401&#45;&gt;460205287205510718 -->
<g class="edge" id="edge7">
<title>4771368369731086401-&gt;460205287205510718</title>
<path d="M332.44,-1012.32C329.58,-1023.14 326.89,-1033.29 324.61,-1041.91" fill="none" stroke="black"/>
<polygon fill="black" points="321.22,-1041.04 322.05,-1051.6 327.99,-1042.83 321.22,-1041.04" stroke="black"/>
</g>
<!-- 329161111579173472 -->
<g class="node" id="node9">
<title>329161111579173472</title>
<polygon fill="none" points="284.54,-750.87 230.54,-750.87 230.54,-714.87 284.54,-714.87 284.54,-750.87" stroke="black"/>
<text font-family="Times,serif" font-size="14.00" text-anchor="middle" x="257.54" y="-729.17">(0, 3)</text>
</g>
<!-- 329161111579173472&#45;&gt;4771368369731086401 -->
<g class="edge" id="edge8">
<title>329161111579173472-&gt;4771368369731086401</title>
<path d="M268.28,-751.05C275.33,-762.32 285.2,-778.11 295.89,-795.23" fill="none" stroke="black"/>
<polygon fill="black" points="292.94,-797.1 301.2,-803.72 298.87,-793.39 292.94,-797.1" stroke="black"/>
</g>
<!-- 329161111578008423 -->
<g class="node" id="node10">
<title>329161111578008423</title>
<polygon fill="none" points="477.54,-750.87 423.54,-750.87 423.54,-714.87 477.54,-714.87 477.54,-750.87" stroke="black"/>
<text font-family="Times,serif" font-size="14.00" text-anchor="middle" x="450.54" y="-729.17">(0, 2)</text>
</g>
<!-- 329161111578008423&#45;&gt;4771368369731086401 -->
<g class="edge" id="edge9">
<title>329161111578008423-&gt;4771368369731086401</title>
<path d="M441.35,-751.05C435.86,-761.32 428.36,-775.34 420.15,-790.7" fill="none" stroke="black"/>
<polygon fill="black" points="416.87,-789.41 415.24,-799.88 423.04,-792.71 416.87,-789.41" stroke="black"/>
</g>
<!-- &#45;4150313276219710546 -->
<g class="node" id="node11">
<title>-4150313276219710546</title>
<ellipse cx="69.54" cy="-609.32" fill="none" rx="69.59" ry="69.59" stroke="black"/>
<text font-family="Times,serif" font-size="14.00" text-anchor="middle" x="69.54" y="-605.62">mean_chunk</text>
</g>
<!-- &#45;4150313276219710546&#45;&gt;329161111580338521 -->
<g class="edge" id="edge10">
<title>-4150313276219710546-&gt;329161111580338521</title>
<path d="M72.93,-678.91C73.38,-687.99 73.81,-696.83 74.2,-704.6" fill="none" stroke="black"/>
<polygon fill="black" points="70.71,-704.99 74.7,-714.8 77.7,-704.64 70.71,-704.99" stroke="black"/>
</g>
<!-- 1639906887577649273 -->
<g class="node" id="node12">
<title>1639906887577649273</title>
<polygon fill="none" points="96.54,-503.78 42.54,-503.78 42.54,-467.78 96.54,-467.78 96.54,-503.78" stroke="black"/>
<text font-family="Times,serif" font-size="14.00" text-anchor="middle" x="69.54" y="-482.08">(0, 0)</text>
</g>
<!-- 1639906887577649273&#45;&gt;&#45;4150313276219710546 -->
<g class="edge" id="edge11">
<title>1639906887577649273-&gt;-4150313276219710546</title>
<path d="M69.54,-503.94C69.54,-511.13 69.54,-520.03 69.54,-529.59" fill="none" stroke="black"/>
<polygon fill="black" points="66.04,-529.75 69.54,-539.75 73.04,-529.75 66.04,-529.75" stroke="black"/>
</g>
<!-- &#45;7430447925333402171 -->
<g class="node" id="node13">
<title>-7430447925333402171</title>
<ellipse cx="383.54" cy="-609.32" fill="none" rx="69.59" ry="69.59" stroke="black"/>
<text font-family="Times,serif" font-size="14.00" text-anchor="middle" x="383.54" y="-605.62">mean_chunk</text>
</g>
<!-- &#45;7430447925333402171&#45;&gt;329161111581503570 -->
<g class="edge" id="edge12">
<title>-7430447925333402171-&gt;329161111581503570</title>
<path d="M333.77,-658.12C324.75,-665.58 315.15,-672.81 305.54,-678.87 271.19,-700.54 258.83,-698.75 221.54,-714.87 220.71,-715.23 219.87,-715.59 219.03,-715.96" fill="none" stroke="black"/>
<polygon fill="black" points="217.59,-712.77 209.81,-719.96 220.38,-719.19 217.59,-712.77" stroke="black"/>
</g>
<!-- 1639906887578814322 -->
<g class="node" id="node14">
<title>1639906887578814322</title>
<polygon fill="none" points="410.54,-503.78 356.54,-503.78 356.54,-467.78 410.54,-467.78 410.54,-503.78" stroke="black"/>
<text font-family="Times,serif" font-size="14.00" text-anchor="middle" x="383.54" y="-482.08">(0, 1)</text>
</g>
<!-- 1639906887578814322&#45;&gt;&#45;7430447925333402171 -->
<g class="edge" id="edge13">
<title>1639906887578814322-&gt;-7430447925333402171</title>
<path d="M383.54,-503.94C383.54,-511.13 383.54,-520.03 383.54,-529.59" fill="none" stroke="black"/>
<polygon fill="black" points="380.04,-529.75 383.54,-539.75 387.04,-529.75 380.04,-529.75" stroke="black"/>
</g>
<!-- &#45;5895089637240147960 -->
<g class="node" id="node15">
<title>-5895089637240147960</title>
<ellipse cx="540.54" cy="-609.32" fill="none" rx="69.59" ry="69.59" stroke="black"/>
<text font-family="Times,serif" font-size="14.00" text-anchor="middle" x="540.54" y="-605.62">mean_chunk</text>
</g>
<!-- &#45;5895089637240147960&#45;&gt;329161111578008423 -->
<g class="edge" id="edge14">
<title>-5895089637240147960-&gt;329161111578008423</title>
<path d="M499.49,-665.76C488.9,-680.07 478.01,-694.78 469.2,-706.67" fill="none" stroke="black"/>
<polygon fill="black" points="466.32,-704.67 463.19,-714.79 471.95,-708.84 466.32,-704.67" stroke="black"/>
</g>
<!-- 1639906887575319175 -->
<g class="node" id="node16">
<title>1639906887575319175</title>
<polygon fill="none" points="567.54,-503.78 513.54,-503.78 513.54,-467.78 567.54,-467.78 567.54,-503.78" stroke="black"/>
<text font-family="Times,serif" font-size="14.00" text-anchor="middle" x="540.54" y="-482.08">(0, 2)</text>
</g>
<!-- 1639906887575319175&#45;&gt;&#45;5895089637240147960 -->
<g class="edge" id="edge15">
<title>1639906887575319175-&gt;-5895089637240147960</title>
<path d="M540.54,-503.94C540.54,-511.13 540.54,-520.03 540.54,-529.59" fill="none" stroke="black"/>
<polygon fill="black" points="537.04,-529.75 540.54,-539.75 544.04,-529.75 537.04,-529.75" stroke="black"/>
</g>
<!-- &#45;1321855208474239921 -->
<g class="node" id="node17">
<title>-1321855208474239921</title>
<ellipse cx="226.54" cy="-609.32" fill="none" rx="69.59" ry="69.59" stroke="black"/>
<text font-family="Times,serif" font-size="14.00" text-anchor="middle" x="226.54" y="-605.62">mean_chunk</text>
</g>
<!-- &#45;1321855208474239921&#45;&gt;329161111579173472 -->
<g class="edge" id="edge16">
<title>-1321855208474239921-&gt;329161111579173472</title>
<path d="M243.5,-676.79C246,-686.61 248.45,-696.23 250.59,-704.61" fill="none" stroke="black"/>
<polygon fill="black" points="247.25,-705.66 253.11,-714.49 254.03,-703.93 247.25,-705.66" stroke="black"/>
</g>
<!-- 1639906887576484224 -->
<g class="node" id="node18">
<title>1639906887576484224</title>
<polygon fill="none" points="253.54,-503.78 199.54,-503.78 199.54,-467.78 253.54,-467.78 253.54,-503.78" stroke="black"/>
<text font-family="Times,serif" font-size="14.00" text-anchor="middle" x="226.54" y="-482.08">(0, 3)</text>
</g>
<!-- 1639906887576484224&#45;&gt;&#45;1321855208474239921 -->
<g class="edge" id="edge17">
<title>1639906887576484224-&gt;-1321855208474239921</title>
<path d="M226.54,-503.94C226.54,-511.13 226.54,-520.03 226.54,-529.59" fill="none" stroke="black"/>
<polygon fill="black" points="223.04,-529.75 226.54,-539.75 230.04,-529.75 223.04,-529.75" stroke="black"/>
</g>
<!-- 957055651201464590 -->
<g class="node" id="node19">
<title>957055651201464590</title>
<ellipse cx="69.54" cy="-403.18" fill="none" rx="28.7" ry="28.7" stroke="black"/>
<text font-family="Times,serif" font-size="14.00" text-anchor="middle" x="69.54" y="-399.48">mul</text>
</g>
<!-- 957055651201464590&#45;&gt;1639906887577649273 -->
<g class="edge" id="edge18">
<title>957055651201464590-&gt;1639906887577649273</title>
<path d="M69.54,-431.92C69.54,-440.15 69.54,-449.16 69.54,-457.37" fill="none" stroke="black"/>
<polygon fill="black" points="66.04,-457.57 69.54,-467.57 73.04,-457.57 66.04,-457.57" stroke="black"/>
</g>
<!-- 5581130617534253882 -->
<g class="node" id="node20">
<title>5581130617534253882</title>
<polygon fill="none" points="86.54,-136.99 32.54,-136.99 32.54,-100.99 86.54,-100.99 86.54,-136.99" stroke="black"/>
<text font-family="Times,serif" font-size="14.00" text-anchor="middle" x="59.54" y="-115.29">(0, 0)</text>
</g>
<!-- 5581130617534253882&#45;&gt;957055651201464590 -->
<g class="edge" id="edge19">
<title>5581130617534253882-&gt;957055651201464590</title>
<path d="M52.06,-137.29C48.07,-147.47 43.57,-160.72 41.54,-172.99 30.34,-240.83 46.72,-320.66 58.75,-365.95" fill="none" stroke="black"/>
<polygon fill="black" points="55.38,-366.89 61.39,-375.61 62.13,-365.04 55.38,-366.89" stroke="black"/>
</g>
<!-- 7678599310528048269 -->
<g class="node" id="node35">
<title>7678599310528048269</title>
<ellipse cx="97.54" cy="-219.79" fill="none" rx="46.59" ry="46.59" stroke="black"/>
<text font-family="Times,serif" font-size="14.00" text-anchor="middle" x="97.54" y="-216.09">getitem</text>
</g>
<!-- 5581130617534253882&#45;&gt;7678599310528048269 -->
<g class="edge" id="edge35">
<title>5581130617534253882-&gt;7678599310528048269</title>
<path d="M66.16,-137.2C69.32,-145.41 73.29,-155.73 77.33,-166.23" fill="none" stroke="black"/>
<polygon fill="black" points="74.18,-167.8 81.04,-175.88 80.72,-165.29 74.18,-167.8" stroke="black"/>
</g>
<!-- 2239995699189520991 -->
<g class="node" id="node21">
<title>2239995699189520991</title>
<polygon fill="none" points="128.54,-338.59 74.54,-338.59 74.54,-302.59 128.54,-302.59 128.54,-338.59" stroke="black"/>
<text font-family="Times,serif" font-size="14.00" text-anchor="middle" x="101.54" y="-316.89">(0, 0)</text>
</g>
<!-- 2239995699189520991&#45;&gt;957055651201464590 -->
<g class="edge" id="edge20">
<title>2239995699189520991-&gt;957055651201464590</title>
<path d="M94.76,-338.68C91.51,-346.86 87.49,-356.97 83.63,-366.7" fill="none" stroke="black"/>
<polygon fill="black" points="80.29,-365.64 79.85,-376.22 86.79,-368.22 80.29,-365.64" stroke="black"/>
</g>
<!-- 2397661101343043365 -->
<g class="node" id="node22">
<title>2397661101343043365</title>
<ellipse cx="383.54" cy="-403.18" fill="none" rx="28.7" ry="28.7" stroke="black"/>
<text font-family="Times,serif" font-size="14.00" text-anchor="middle" x="383.54" y="-399.48">mul</text>
</g>
<!-- 2397661101343043365&#45;&gt;1639906887578814322 -->
<g class="edge" id="edge21">
<title>2397661101343043365-&gt;1639906887578814322</title>
<path d="M383.54,-431.92C383.54,-440.15 383.54,-449.16 383.54,-457.37" fill="none" stroke="black"/>
<polygon fill="black" points="380.04,-457.57 383.54,-467.57 387.04,-457.57 380.04,-457.57" stroke="black"/>
</g>
<!-- 2239995699190686040 -->
<g class="node" id="node23">
<title>2239995699190686040</title>
<polygon fill="none" points="397.54,-338.59 343.54,-338.59 343.54,-302.59 397.54,-302.59 397.54,-338.59" stroke="black"/>
<text font-family="Times,serif" font-size="14.00" text-anchor="middle" x="370.54" y="-316.89">(0, 1)</text>
</g>
<!-- 2239995699190686040&#45;&gt;2397661101343043365 -->
<g class="edge" id="edge22">
<title>2239995699190686040-&gt;2397661101343043365</title>
<path d="M373.3,-338.68C374.52,-346.27 376.02,-355.52 377.48,-364.59" fill="none" stroke="black"/>
<polygon fill="black" points="374.06,-365.34 379.1,-374.65 380.97,-364.22 374.06,-365.34" stroke="black"/>
</g>
<!-- 5581130617533088833 -->
<g class="node" id="node24">
<title>5581130617533088833</title>
<polygon fill="none" points="543.54,-136.99 489.54,-136.99 489.54,-100.99 543.54,-100.99 543.54,-136.99" stroke="black"/>
<text font-family="Times,serif" font-size="14.00" text-anchor="middle" x="516.54" y="-115.29">(0, 1)</text>
</g>
<!-- 5581130617533088833&#45;&gt;2397661101343043365 -->
<g class="edge" id="edge23">
<title>5581130617533088833-&gt;2397661101343043365</title>
<path d="M508.42,-137.22C486.96,-182.77 428.39,-307.04 399.75,-367.8" fill="none" stroke="black"/>
<polygon fill="black" points="396.52,-366.45 395.42,-376.99 402.85,-369.44 396.52,-366.45" stroke="black"/>
</g>
<!-- 846042919822719894 -->
<g class="node" id="node36">
<title>846042919822719894</title>
<ellipse cx="554.54" cy="-219.79" fill="none" rx="46.59" ry="46.59" stroke="black"/>
<text font-family="Times,serif" font-size="14.00" text-anchor="middle" x="554.54" y="-216.09">getitem</text>
</g>
<!-- 5581130617533088833&#45;&gt;846042919822719894 -->
<g class="edge" id="edge37">
<title>5581130617533088833-&gt;846042919822719894</title>
<path d="M523.16,-137.2C526.32,-145.41 530.29,-155.73 534.33,-166.23" fill="none" stroke="black"/>
<polygon fill="black" points="531.18,-167.8 538.04,-175.88 537.72,-165.29 531.18,-167.8" stroke="black"/>
</g>
<!-- &#45;6610479145245979160 -->
<g class="node" id="node25">
<title>-6610479145245979160</title>
<ellipse cx="540.54" cy="-403.18" fill="none" rx="28.7" ry="28.7" stroke="black"/>
<text font-family="Times,serif" font-size="14.00" text-anchor="middle" x="540.54" y="-399.48">mul</text>
</g>
<!-- &#45;6610479145245979160&#45;&gt;1639906887575319175 -->
<g class="edge" id="edge24">
<title>-6610479145245979160-&gt;1639906887575319175</title>
<path d="M540.54,-431.92C540.54,-440.15 540.54,-449.16 540.54,-457.37" fill="none" stroke="black"/>
<polygon fill="black" points="537.04,-457.57 540.54,-467.57 544.04,-457.57 537.04,-457.57" stroke="black"/>
</g>
<!-- 5581130617531923784 -->
<g class="node" id="node26">
<title>5581130617531923784</title>
<polygon fill="none" points="408.54,-136.99 354.54,-136.99 354.54,-100.99 408.54,-100.99 408.54,-136.99" stroke="black"/>
<text font-family="Times,serif" font-size="14.00" text-anchor="middle" x="381.54" y="-115.29">(0, 2)</text>
</g>
<!-- 5581130617531923784&#45;&gt;&#45;6610479145245979160 -->
<g class="edge" id="edge25">
<title>5581130617531923784-&gt;-6610479145245979160</title>
<path d="M396.05,-137.07C404.3,-147.18 414.55,-160.43 422.54,-172.99 444.88,-208.07 496.97,-313 523.85,-367.88" fill="none" stroke="black"/>
<polygon fill="black" points="520.87,-369.75 528.4,-377.2 527.15,-366.68 520.87,-369.75" stroke="black"/>
</g>
<!-- 4209223212487584919 -->
<g class="node" id="node37">
<title>4209223212487584919</title>
<ellipse cx="366.54" cy="-219.79" fill="none" rx="46.59" ry="46.59" stroke="black"/>
<text font-family="Times,serif" font-size="14.00" text-anchor="middle" x="366.54" y="-216.09">getitem</text>
</g>
<!-- 5581130617531923784&#45;&gt;4209223212487584919 -->
<g class="edge" id="edge39">
<title>5581130617531923784-&gt;4209223212487584919</title>
<path d="M378.93,-137.2C377.8,-144.67 376.4,-153.88 374.96,-163.38" fill="none" stroke="black"/>
<polygon fill="black" points="371.49,-162.93 373.44,-173.34 378.41,-163.98 371.49,-162.93" stroke="black"/>
</g>
<!-- 2239995699191851089 -->
<g class="node" id="node27">
<title>2239995699191851089</title>
<polygon fill="none" points="572.54,-338.59 518.54,-338.59 518.54,-302.59 572.54,-302.59 572.54,-338.59" stroke="black"/>
<text font-family="Times,serif" font-size="14.00" text-anchor="middle" x="545.54" y="-316.89">(0, 2)</text>
</g>
<!-- 2239995699191851089&#45;&gt;&#45;6610479145245979160 -->
<g class="edge" id="edge26">
<title>2239995699191851089-&gt;-6610479145245979160</title>
<path d="M544.48,-338.68C544.02,-346.2 543.45,-355.36 542.89,-364.35" fill="none" stroke="black"/>
<polygon fill="black" points="539.4,-364.14 542.27,-374.33 546.38,-364.57 539.4,-364.14" stroke="black"/>
</g>
<!-- &#45;4679051174042245585 -->
<g class="node" id="node28">
<title>-4679051174042245585</title>
<ellipse cx="226.54" cy="-403.18" fill="none" rx="28.7" ry="28.7" stroke="black"/>
<text font-family="Times,serif" font-size="14.00" text-anchor="middle" x="226.54" y="-399.48">mul</text>
</g>
<!-- &#45;4679051174042245585&#45;&gt;1639906887576484224 -->
<g class="edge" id="edge27">
<title>-4679051174042245585-&gt;1639906887576484224</title>
<path d="M226.54,-431.92C226.54,-440.15 226.54,-449.16 226.54,-457.37" fill="none" stroke="black"/>
<polygon fill="black" points="223.04,-457.57 226.54,-467.57 230.04,-457.57 223.04,-457.57" stroke="black"/>
</g>
<!-- 2239995699193016138 -->
<g class="node" id="node29">
<title>2239995699193016138</title>
<polygon fill="none" points="233.54,-338.59 179.54,-338.59 179.54,-302.59 233.54,-302.59 233.54,-338.59" stroke="black"/>
<text font-family="Times,serif" font-size="14.00" text-anchor="middle" x="206.54" y="-316.89">(0, 3)</text>
</g>
<!-- 2239995699193016138&#45;&gt;&#45;4679051174042245585 -->
<g class="edge" id="edge28">
<title>2239995699193016138-&gt;-4679051174042245585</title>
<path d="M210.79,-338.68C212.72,-346.48 215.1,-356.05 217.41,-365.37" fill="none" stroke="black"/>
<polygon fill="black" points="214.06,-366.42 219.87,-375.28 220.86,-364.73 214.06,-366.42" stroke="black"/>
</g>
<!-- 5581130617530758735 -->
<g class="node" id="node30">
<title>5581130617530758735</title>
<polygon fill="none" points="273.54,-136.99 219.54,-136.99 219.54,-100.99 273.54,-100.99 273.54,-136.99" stroke="black"/>
<text font-family="Times,serif" font-size="14.00" text-anchor="middle" x="246.54" y="-115.29">(0, 3)</text>
</g>
<!-- 5581130617530758735&#45;&gt;&#45;4679051174042245585 -->
<g class="edge" id="edge29">
<title>5581130617530758735-&gt;-4679051174042245585</title>
<path d="M254.44,-137.25C258.65,-147.42 263.4,-160.67 265.54,-172.99 272.67,-213.98 271.35,-225.4 265.54,-266.59 260.66,-301.21 249.1,-339.39 239.82,-366.39" fill="none" stroke="black"/>
<polygon fill="black" points="236.4,-365.56 236.4,-376.16 243.01,-367.88 236.4,-365.56" stroke="black"/>
</g>
<!-- 4639263246309438544 -->
<g class="node" id="node38">
<title>4639263246309438544</title>
<ellipse cx="209.54" cy="-219.79" fill="none" rx="46.59" ry="46.59" stroke="black"/>
<text font-family="Times,serif" font-size="14.00" text-anchor="middle" x="209.54" y="-216.09">getitem</text>
</g>
<!-- 5581130617530758735&#45;&gt;4639263246309438544 -->
<g class="edge" id="edge41">
<title>5581130617530758735-&gt;4639263246309438544</title>
<path d="M240.1,-137.2C237.06,-145.33 233.24,-155.52 229.35,-165.91" fill="none" stroke="black"/>
<polygon fill="black" points="226,-164.86 225.77,-175.46 232.56,-167.32 226,-164.86" stroke="black"/>
</g>
<!-- &#45;1467910790690776579 -->
<g class="node" id="node31">
<title>-1467910790690776579</title>
<ellipse cx="59.54" cy="-32.5" fill="none" rx="32.49" ry="32.49" stroke="black"/>
<text font-family="Times,serif" font-size="14.00" text-anchor="middle" x="59.54" y="-28.8">ones</text>
</g>
<!-- &#45;1467910790690776579&#45;&gt;5581130617534253882 -->
<g class="edge" id="edge30">
<title>-1467910790690776579-&gt;5581130617534253882</title>
<path d="M59.54,-65.44C59.54,-73.67 59.54,-82.45 59.54,-90.43" fill="none" stroke="black"/>
<polygon fill="black" points="56.04,-90.69 59.54,-100.69 63.04,-90.69 56.04,-90.69" stroke="black"/>
</g>
<!-- &#45;1090831373445564154 -->
<g class="node" id="node32">
<title>-1090831373445564154</title>
<ellipse cx="516.54" cy="-32.5" fill="none" rx="32.49" ry="32.49" stroke="black"/>
<text font-family="Times,serif" font-size="14.00" text-anchor="middle" x="516.54" y="-28.8">ones</text>
</g>
<!-- &#45;1090831373445564154&#45;&gt;5581130617533088833 -->
<g class="edge" id="edge31">
<title>-1090831373445564154-&gt;5581130617533088833</title>
<path d="M516.54,-65.44C516.54,-73.67 516.54,-82.45 516.54,-90.43" fill="none" stroke="black"/>
<polygon fill="black" points="513.04,-90.69 516.54,-100.69 520.04,-90.69 513.04,-90.69" stroke="black"/>
</g>
<!-- 1062196149202694471 -->
<g class="node" id="node33">
<title>1062196149202694471</title>
<ellipse cx="381.54" cy="-32.5" fill="none" rx="32.49" ry="32.49" stroke="black"/>
<text font-family="Times,serif" font-size="14.00" text-anchor="middle" x="381.54" y="-28.8">ones</text>
</g>
<!-- 1062196149202694471&#45;&gt;5581130617531923784 -->
<g class="edge" id="edge32">
<title>1062196149202694471-&gt;5581130617531923784</title>
<path d="M381.54,-65.44C381.54,-73.67 381.54,-82.45 381.54,-90.43" fill="none" stroke="black"/>
<polygon fill="black" points="378.04,-90.69 381.54,-100.69 385.04,-90.69 378.04,-90.69" stroke="black"/>
</g>
<!-- &#45;5179843938900528704 -->
<g class="node" id="node34">
<title>-5179843938900528704</title>
<ellipse cx="246.54" cy="-32.5" fill="none" rx="32.49" ry="32.49" stroke="black"/>
<text font-family="Times,serif" font-size="14.00" text-anchor="middle" x="246.54" y="-28.8">ones</text>
</g>
<!-- &#45;5179843938900528704&#45;&gt;5581130617530758735 -->
<g class="edge" id="edge33">
<title>-5179843938900528704-&gt;5581130617530758735</title>
<path d="M246.54,-65.44C246.54,-73.67 246.54,-82.45 246.54,-90.43" fill="none" stroke="black"/>
<polygon fill="black" points="243.04,-90.69 246.54,-100.69 250.04,-90.69 243.04,-90.69" stroke="black"/>
</g>
<!-- 7678599310528048269&#45;&gt;2239995699193016138 -->
<g class="edge" id="edge34">
<title>7678599310528048269-&gt;2239995699193016138</title>
<path d="M131.73,-251.78C147.33,-265.91 165.51,-282.39 180.04,-295.56" fill="none" stroke="black"/>
<polygon fill="black" points="177.94,-298.38 187.7,-302.51 182.64,-293.2 177.94,-298.38" stroke="black"/>
</g>
<!-- 846042919822719894&#45;&gt;2239995699191851089 -->
<g class="edge" id="edge36">
<title>846042919822719894-&gt;2239995699191851089</title>
<path d="M550.39,-266.43C549.59,-275.19 548.78,-284.11 548.05,-292.07" fill="none" stroke="black"/>
<polygon fill="black" points="544.55,-291.96 547.12,-302.24 551.52,-292.6 544.55,-291.96" stroke="black"/>
</g>
<!-- 4209223212487584919&#45;&gt;2239995699190686040 -->
<g class="edge" id="edge38">
<title>4209223212487584919-&gt;2239995699190686040</title>
<path d="M368.4,-266.72C368.76,-275.45 369.12,-284.32 369.44,-292.25" fill="none" stroke="black"/>
<polygon fill="black" points="365.94,-292.51 369.85,-302.36 372.94,-292.22 365.94,-292.51" stroke="black"/>
</g>
<!-- 4639263246309438544&#45;&gt;2239995699189520991 -->
<g class="edge" id="edge40">
<title>4639263246309438544-&gt;2239995699189520991</title>
<path d="M175.37,-252.05C160.04,-266.07 142.24,-282.36 127.95,-295.43" fill="none" stroke="black"/>
<polygon fill="black" points="125.43,-292.99 120.42,-302.32 130.16,-298.15 125.43,-292.99" stroke="black"/>
</g>
</g>
</svg>