<svg height="1421pt" viewBox="0.00 0.00 618.09 1420.73" width="618pt" xmlns="http://www.w3.org/2000/svg" xmlns:xlink="http://www.w3.org/1999/xlink">
<g class="graph" id="graph0" transform="scale(1 1) rotate(0) translate(4 1416.73)">
<title>%3</title>
<polygon fill="white" points="-4,4 -4,-1416.73 614.09,-1416.73 614.09,4 -4,4" stroke="transparent"/>
<!-- &#45;6253051232790796985 -->
<g class="node" id="node1">
<title>-6253051232790796985</title>
<ellipse cx="237.54" cy="-1232.19" fill="none" rx="108.58" ry="108.58" stroke="black"/>
<text font-family="Times,serif" font-size="14.00" text-anchor="middle" x="237.54" y="-1228.49">mean_agg-aggregate</text>
</g>
<!-- 3397007299422970032 -->
<g class="node" id="node2">
<title>3397007299422970032</title>
<polygon fill="none" points="264.54,-1412.73 210.54,-1412.73 210.54,-1376.73 264.54,-1376.73 264.54,-1412.73" stroke="black"/>
<text font-family="Times,serif" font-size="14.00" text-anchor="middle" x="237.54" y="-1391.03">()</text>
</g>
<!-- &#45;6253051232790796985&#45;&gt;3397007299422970032 -->
<g class="edge" id="edge1">
<title>-6253051232790796985-&gt;3397007299422970032</title>
<path d="M237.54,-1341.16C237.54,-1350.31 237.54,-1358.91 237.54,-1366.4" fill="none" stroke="black"/>
<polygon fill="black" points="234.04,-1366.51 237.54,-1376.51 241.04,-1366.51 234.04,-1366.51" stroke="black"/>
</g>
<!-- 51178721834515117 -->
<g class="node" id="node3">
<title>51178721834515117</title>
<polygon fill="none" points="228.54,-1087.65 174.54,-1087.65 174.54,-1051.65 228.54,-1051.65 228.54,-1087.65" stroke="black"/>
<text font-family="Times,serif" font-size="14.00" text-anchor="middle" x="201.54" y="-1065.95">(0, 0)</text>
</g>
<!-- 51178721834515117&#45;&gt;&#45;6253051232790796985 -->
<g class="edge" id="edge2">
<title>51178721834515117-&gt;-6253051232790796985</title>
<path d="M205.4,-1087.83C207.12,-1095.52 209.32,-1105.31 211.75,-1116.14" fill="none" stroke="black"/>
<polygon fill="black" points="208.33,-1116.91 213.93,-1125.9 215.16,-1115.38 208.33,-1116.91" stroke="black"/>
</g>
<!-- 51178721835680166 -->
<g class="node" id="node4">
<title>51178721835680166</title>
<polygon fill="none" points="344.54,-1087.65 290.54,-1087.65 290.54,-1051.65 344.54,-1051.65 344.54,-1087.65" stroke="black"/>
<text font-family="Times,serif" font-size="14.00" text-anchor="middle" x="317.54" y="-1065.95">(0, 1)</text>
</g>
<!-- 51178721835680166&#45;&gt;&#45;6253051232790796985 -->
<g class="edge" id="edge3">
<title>51178721835680166-&gt;-6253051232790796985</title>
<path d="M308.98,-1087.83C304.08,-1097.68 297.46,-1110.94 290.23,-1125.45" fill="none" stroke="black"/>
<polygon fill="black" points="286.99,-1124.11 285.66,-1134.62 293.26,-1127.23 286.99,-1124.11" stroke="black"/>
</g>
<!-- &#45;1926616500013694262 -->
<g class="node" id="node5">
<title>-1926616500013694262</title>
<ellipse cx="114.54" cy="-901.26" fill="none" rx="114.28" ry="114.28" stroke="black"/>
<text font-family="Times,serif" font-size="14.00" text-anchor="middle" x="114.54" y="-897.56">mean_combine-partial</text>
</g>
<!-- &#45;1926616500013694262&#45;&gt;51178721834515117 -->
<g class="edge" id="edge4">
<title>-1926616500013694262-&gt;51178721834515117</title>
<path d="M167.16,-1002.89C174.74,-1017.39 181.94,-1031.15 187.77,-1042.31" fill="none" stroke="black"/>
<polygon fill="black" points="184.78,-1044.15 192.52,-1051.39 190.99,-1040.9 184.78,-1044.15" stroke="black"/>
</g>
<!-- &#45;1173315013989491779 -->
<g class="node" id="node6">
<title>-1173315013989491779</title>
<polygon fill="none" points="102.54,-750.87 48.54,-750.87 48.54,-714.87 102.54,-714.87 102.54,-750.87" stroke="black"/>
<text font-family="Times,serif" font-size="14.00" text-anchor="middle" x="75.54" y="-729.17">(0, 1)</text>
</g>
<!-- &#45;1173315013989491779&#45;&gt;&#45;1926616500013694262 -->
<g class="edge" id="edge5">
<title>-1173315013989491779-&gt;-1926616500013694262</title>
<path d="M79.57,-751.05C81.39,-758.82 83.72,-768.73 86.3,-779.75" fill="none" stroke="black"/>
<polygon fill="black" points="82.94,-780.75 88.63,-789.69 89.75,-779.15 82.94,-780.75" stroke="black"/>
</g>
<!-- &#45;1173315013988326730 -->
<g class="node" id="node7">
<title>-1173315013988326730</title>
<polygon fill="none" points="209.54,-750.87 155.54,-750.87 155.54,-714.87 209.54,-714.87 209.54,-750.87" stroke="black"/>
<text font-family="Times,serif" font-size="14.00" text-anchor="middle" x="182.54" y="-729.17">(0, 0)</text>
</g>
<!-- &#45;1173315013988326730&#45;&gt;&#45;1926616500013694262 -->
<g class="edge" id="edge6">
<title>-1173315013988326730-&gt;-1926616500013694262</title>
<path d="M175.52,-751.05C171.8,-760.16 166.87,-772.21 161.43,-785.53" fill="none" stroke="black"/>
<polygon fill="black" points="158.13,-784.35 157.59,-794.93 164.61,-787 158.13,-784.35" stroke="black"/>
</g>
<!-- &#45;860150271370439487 -->
<g class="node" id="node8">
<title>-860150271370439487</title>
<ellipse cx="361.54" cy="-901.26" fill="none" rx="114.28" ry="114.28" stroke="black"/>
<text font-family="Times,serif" font-size="14.00" text-anchor="middle" x="361.54" y="-897.56">mean_combine-partial</text>
</g>
<!-- &#45;860150271370439487&#45;&gt;51178721835680166 -->
<g class="edge" id="edge7">
<title>-860150271370439487-&gt;51178721835680166</title>
<path d="M332.44,-1012.32C329.58,-1023.14 326.89,-1033.29 324.61,-1041.91" fill="none" stroke="black"/>
<polygon fill="black" points="321.22,-1041.04 322.05,-1051.6 327.99,-1042.83 321.22,-1041.04" stroke="black"/>
</g>
<!-- &#45;1173315013991821877 -->
<g class="node" id="node9">
<title>-1173315013991821877</title>
<polygon fill="none" points="477.54,-750.87 423.54,-750.87 423.54,-714.87 477.54,-714.87 477.54,-750.87" stroke="black"/>
<text font-family="Times,serif" font-size="14.00" text-anchor="middle" x="450.54" y="-729.17">(0, 3)</text>
</g>
<!-- &#45;1173315013991821877&#45;&gt;&#45;860150271370439487 -->
<g class="edge" id="edge8">
<title>-1173315013991821877-&gt;-860150271370439487</title>
<path d="M441.35,-751.05C435.86,-761.32 428.36,-775.34 420.15,-790.7" fill="none" stroke="black"/>
<polygon fill="black" points="416.87,-789.41 415.24,-799.88 423.04,-792.71 416.87,-789.41" stroke="black"/>
</g>
<!-- &#45;1173315013990656828 -->
<g class="node" id="node10">
<title>-1173315013990656828</title>
<polygon fill="none" points="284.54,-750.87 230.54,-750.87 230.54,-714.87 284.54,-714.87 284.54,-750.87" stroke="black"/>
<text font-family="Times,serif" font-size="14.00" text-anchor="middle" x="257.54" y="-729.17">(0, 2)</text>
</g>
<!-- &#45;1173315013990656828&#45;&gt;&#45;860150271370439487 -->
<g class="edge" id="edge9">
<title>-1173315013990656828-&gt;-860150271370439487</title>
<path d="M268.28,-751.05C275.33,-762.32 285.2,-778.11 295.89,-795.23" fill="none" stroke="black"/>
<polygon fill="black" points="292.94,-797.1 301.2,-803.72 298.87,-793.39 292.94,-797.1" stroke="black"/>
</g>
<!-- &#45;1619686513297836143 -->
<g class="node" id="node11">
<title>-1619686513297836143</title>
<ellipse cx="383.54" cy="-609.32" fill="none" rx="69.59" ry="69.59" stroke="black"/>
<text font-family="Times,serif" font-size="14.00" text-anchor="middle" x="383.54" y="-605.62">mean_chunk</text>
</g>
<!-- &#45;1619686513297836143&#45;&gt;&#45;1173315013988326730 -->
<g class="edge" id="edge10">
<title>-1619686513297836143-&gt;-1173315013988326730</title>
<path d="M333.77,-658.12C324.75,-665.58 315.15,-672.81 305.54,-678.87 271.19,-700.54 258.83,-698.75 221.54,-714.87 220.71,-715.23 219.87,-715.59 219.03,-715.96" fill="none" stroke="black"/>
<polygon fill="black" points="217.59,-712.77 209.81,-719.96 220.38,-719.19 217.59,-712.77" stroke="black"/>
</g>
<!-- &#45;1858967369123259612 -->
<g class="node" id="node12">
<title>-1858967369123259612</title>
<polygon fill="none" points="410.54,-503.78 356.54,-503.78 356.54,-467.78 410.54,-467.78 410.54,-503.78" stroke="black"/>
<text font-family="Times,serif" font-size="14.00" text-anchor="middle" x="383.54" y="-482.08">(0, 0)</text>
</g>
<!-- &#45;1858967369123259612&#45;&gt;&#45;1619686513297836143 -->
<g class="edge" id="edge11">
<title>-1858967369123259612-&gt;-1619686513297836143</title>
<path d="M383.54,-503.94C383.54,-511.13 383.54,-520.03 383.54,-529.59" fill="none" stroke="black"/>
<polygon fill="black" points="380.04,-529.75 383.54,-539.75 387.04,-529.75 380.04,-529.75" stroke="black"/>
</g>
<!-- &#45;2666916421923657318 -->
<g class="node" id="node13">
<title>-2666916421923657318</title>
<ellipse cx="69.54" cy="-609.32" fill="none" rx="69.59" ry="69.59" stroke="black"/>
<text font-family="Times,serif" font-size="14.00" text-anchor="middle" x="69.54" y="-605.62">mean_chunk</text>
</g>
<!-- &#45;2666916421923657318&#45;&gt;&#45;1173315013989491779 -->
<g class="edge" id="edge12">
<title>-2666916421923657318-&gt;-1173315013989491779</title>
<path d="M72.93,-678.91C73.38,-687.99 73.81,-696.83 74.2,-704.6" fill="none" stroke="black"/>
<polygon fill="black" points="70.71,-704.99 74.7,-714.8 77.7,-704.64 70.71,-704.99" stroke="black"/>
</g>
<!-- &#45;1858967369124424661 -->
<g class="node" id="node14">
<title>-1858967369124424661</title>
<polygon fill="none" points="96.54,-503.78 42.54,-503.78 42.54,-467.78 96.54,-467.78 96.54,-503.78" stroke="black"/>
<text font-family="Times,serif" font-size="14.00" text-anchor="middle" x="69.54" y="-482.08">(0, 1)</text>
</g>
<!-- &#45;1858967369124424661&#45;&gt;&#45;2666916421923657318 -->
<g class="edge" id="edge13">
<title>-1858967369124424661-&gt;-2666916421923657318</title>
<path d="M69.54,-503.94C69.54,-511.13 69.54,-520.03 69.54,-529.59" fill="none" stroke="black"/>
<polygon fill="black" points="66.04,-529.75 69.54,-539.75 73.04,-529.75 66.04,-529.75" stroke="black"/>
</g>
<!-- &#45;8392781472181633909 -->
<g class="node" id="node15">
<title>-8392781472181633909</title>
<ellipse cx="226.54" cy="-609.32" fill="none" rx="69.59" ry="69.59" stroke="black"/>
<text font-family="Times,serif" font-size="14.00" text-anchor="middle" x="226.54" y="-605.62">mean_chunk</text>
</g>
<!-- &#45;8392781472181633909&#45;&gt;&#45;1173315013990656828 -->
<g class="edge" id="edge14">
<title>-8392781472181633909-&gt;-1173315013990656828</title>
<path d="M243.5,-676.79C246,-686.61 248.45,-696.23 250.59,-704.61" fill="none" stroke="black"/>
<polygon fill="black" points="247.25,-705.66 253.11,-714.49 254.03,-703.93 247.25,-705.66" stroke="black"/>
</g>
<!-- &#45;1858967369120929514 -->
<g class="node" id="node16">
<title>-1858967369120929514</title>
<polygon fill="none" points="253.54,-503.78 199.54,-503.78 199.54,-467.78 253.54,-467.78 253.54,-503.78" stroke="black"/>
<text font-family="Times,serif" font-size="14.00" text-anchor="middle" x="226.54" y="-482.08">(0, 2)</text>
</g>
<!-- &#45;1858967369120929514&#45;&gt;&#45;8392781472181633909 -->
<g class="edge" id="edge15">
<title>-1858967369120929514-&gt;-8392781472181633909</title>
<path d="M226.54,-503.94C226.54,-511.13 226.54,-520.03 226.54,-529.59" fill="none" stroke="black"/>
<polygon fill="black" points="223.04,-529.75 226.54,-539.75 230.04,-529.75 223.04,-529.75" stroke="black"/>
</g>
<!-- 8663196893005330532 -->
<g class="node" id="node17">
<title>8663196893005330532</title>
<ellipse cx="540.54" cy="-609.32" fill="none" rx="69.59" ry="69.59" stroke="black"/>
<text font-family="Times,serif" font-size="14.00" text-anchor="middle" x="540.54" y="-605.62">mean_chunk</text>
</g>
<!-- 8663196893005330532&#45;&gt;&#45;1173315013991821877 -->
<g class="edge" id="edge16">
<title>8663196893005330532-&gt;-1173315013991821877</title>
<path d="M499.49,-665.76C488.9,-680.07 478.01,-694.78 469.2,-706.67" fill="none" stroke="black"/>
<polygon fill="black" points="466.32,-704.67 463.19,-714.79 471.95,-708.84 466.32,-704.67" stroke="black"/>
</g>
<!-- &#45;1858967369122094563 -->
<g class="node" id="node18">
<title>-1858967369122094563</title>
<polygon fill="none" points="567.54,-503.78 513.54,-503.78 513.54,-467.78 567.54,-467.78 567.54,-503.78" stroke="black"/>
<text font-family="Times,serif" font-size="14.00" text-anchor="middle" x="540.54" y="-482.08">(0, 3)</text>
</g>
<!-- &#45;1858967369122094563&#45;&gt;8663196893005330532 -->
<g class="edge" id="edge17">
<title>-1858967369122094563-&gt;8663196893005330532</title>
<path d="M540.54,-503.94C540.54,-511.13 540.54,-520.03 540.54,-529.59" fill="none" stroke="black"/>
<polygon fill="black" points="537.04,-529.75 540.54,-539.75 544.04,-529.75 537.04,-529.75" stroke="black"/>
</g>
<!-- &#45;1437185318636632021 -->
<g class="node" id="node19">
<title>-1437185318636632021</title>
<ellipse cx="383.54" cy="-403.18" fill="none" rx="28.7" ry="28.7" stroke="black"/>
<text font-family="Times,serif" font-size="14.00" text-anchor="middle" x="383.54" y="-399.48">mul</text>
</g>
<!-- &#45;1437185318636632021&#45;&gt;&#45;1858967369123259612 -->
<g class="edge" id="edge18">
<title>-1437185318636632021-&gt;-1858967369123259612</title>
<path d="M383.54,-431.92C383.54,-440.15 383.54,-449.16 383.54,-457.37" fill="none" stroke="black"/>
<polygon fill="black" points="380.04,-457.57 383.54,-467.57 387.04,-457.57 380.04,-457.57" stroke="black"/>
</g>
<!-- 561533860244129841 -->
<g class="node" id="node20">
<title>561533860244129841</title>
<polygon fill="none" points="403.54,-338.59 349.54,-338.59 349.54,-302.59 403.54,-302.59 403.54,-338.59" stroke="black"/>
<text font-family="Times,serif" font-size="14.00" text-anchor="middle" x="376.54" y="-316.89">(0, 0)</text>
</g>
<!-- 561533860244129841&#45;&gt;&#45;1437185318636632021 -->
<g class="edge" id="edge19">
<title>561533860244129841-&gt;-1437185318636632021</title>
<path d="M378.03,-338.68C378.69,-346.27 379.49,-355.52 380.28,-364.59" fill="none" stroke="black"/>
<polygon fill="black" points="376.8,-364.99 381.15,-374.65 383.77,-364.39 376.8,-364.99" stroke="black"/>
</g>
<!-- 6454698148466082622 -->
<g class="node" id="node21">
<title>6454698148466082622</title>
<polygon fill="none" points="547.54,-136.99 493.54,-136.99 493.54,-100.99 547.54,-100.99 547.54,-136.99" stroke="black"/>
<text font-family="Times,serif" font-size="14.00" text-anchor="middle" x="520.54" y="-115.29">(0, 0)</text>
</g>
<!-- 6454698148466082622&#45;&gt;&#45;1437185318636632021 -->
<g class="edge" id="edge20">
<title>6454698148466082622-&gt;-1437185318636632021</title>
<path d="M512.18,-137.22C490.07,-182.77 429.74,-307.04 400.24,-367.8" fill="none" stroke="black"/>
<polygon fill="black" points="396.99,-366.46 395.78,-376.99 403.29,-369.52 396.99,-366.46" stroke="black"/>
</g>
<!-- 5647656026328511759 -->
<g class="node" id="node35">
<title>5647656026328511759</title>
<ellipse cx="558.54" cy="-219.79" fill="none" rx="46.59" ry="46.59" stroke="black"/>
<text font-family="Times,serif" font-size="14.00" text-anchor="middle" x="558.54" y="-216.09">getitem</text>
</g>
<!-- 6454698148466082622&#45;&gt;5647656026328511759 -->
<g class="edge" id="edge35">
<title>6454698148466082622-&gt;5647656026328511759</title>
<path d="M527.16,-137.2C530.32,-145.41 534.29,-155.73 538.33,-166.23" fill="none" stroke="black"/>
<polygon fill="black" points="535.18,-167.8 542.04,-175.88 541.72,-165.29 535.18,-167.8" stroke="black"/>
</g>
<!-- &#45;7671029815003750396 -->
<g class="node" id="node22">
<title>-7671029815003750396</title>
<ellipse cx="69.54" cy="-403.18" fill="none" rx="28.7" ry="28.7" stroke="black"/>
<text font-family="Times,serif" font-size="14.00" text-anchor="middle" x="69.54" y="-399.48">mul</text>
</g>
<!-- &#45;7671029815003750396&#45;&gt;&#45;1858967369124424661 -->
<g class="edge" id="edge21">
<title>-7671029815003750396-&gt;-1858967369124424661</title>
<path d="M69.54,-431.92C69.54,-440.15 69.54,-449.16 69.54,-457.37" fill="none" stroke="black"/>
<polygon fill="black" points="66.04,-457.57 69.54,-467.57 73.04,-457.57 66.04,-457.57" stroke="black"/>
</g>
<!-- 561533860245294890 -->
<g class="node" id="node23">
<title>561533860245294890</title>
<polygon fill="none" points="88.54,-338.59 34.54,-338.59 34.54,-302.59 88.54,-302.59 88.54,-338.59" stroke="black"/>
<text font-family="Times,serif" font-size="14.00" text-anchor="middle" x="61.54" y="-316.89">(0, 1)</text>
</g>
<!-- 561533860245294890&#45;&gt;&#45;7671029815003750396 -->
<g class="edge" id="edge22">
<title>561533860245294890-&gt;-7671029815003750396</title>
<path d="M63.24,-338.68C63.99,-346.27 64.91,-355.52 65.81,-364.59" fill="none" stroke="black"/>
<polygon fill="black" points="62.34,-365.05 66.81,-374.65 69.31,-364.35 62.34,-365.05" stroke="black"/>
</g>
<!-- 6454698148464917573 -->
<g class="node" id="node24">
<title>6454698148464917573</title>
<polygon fill="none" points="234.54,-136.99 180.54,-136.99 180.54,-100.99 234.54,-100.99 234.54,-136.99" stroke="black"/>
<text font-family="Times,serif" font-size="14.00" text-anchor="middle" x="207.54" y="-115.29">(0, 1)</text>
</g>
<!-- 6454698148464917573&#45;&gt;&#45;7671029815003750396 -->
<g class="edge" id="edge23">
<title>6454698148464917573-&gt;-7671029815003750396</title>
<path d="M199.12,-137.22C176.84,-182.77 116.07,-307.04 86.36,-367.8" fill="none" stroke="black"/>
<polygon fill="black" points="83.11,-366.47 81.86,-376.99 89.4,-369.54 83.11,-366.47" stroke="black"/>
</g>
<!-- 4506834708316947784 -->
<g class="node" id="node36">
<title>4506834708316947784</title>
<ellipse cx="245.54" cy="-219.79" fill="none" rx="46.59" ry="46.59" stroke="black"/>
<text font-family="Times,serif" font-size="14.00" text-anchor="middle" x="245.54" y="-216.09">getitem</text>
</g>
<!-- 6454698148464917573&#45;&gt;4506834708316947784 -->
<g class="edge" id="edge37">
<title>6454698148464917573-&gt;4506834708316947784</title>
<path d="M214.16,-137.2C217.32,-145.41 221.29,-155.73 225.33,-166.23" fill="none" stroke="black"/>
<polygon fill="black" points="222.18,-167.8 229.04,-175.88 228.72,-165.29 222.18,-167.8" stroke="black"/>
</g>
<!-- &#45;6816519851040062671 -->
<g class="node" id="node25">
<title>-6816519851040062671</title>
<ellipse cx="226.54" cy="-403.18" fill="none" rx="28.7" ry="28.7" stroke="black"/>
<text font-family="Times,serif" font-size="14.00" text-anchor="middle" x="226.54" y="-399.48">mul</text>
</g>
<!-- &#45;6816519851040062671&#45;&gt;&#45;1858967369120929514 -->
<g class="edge" id="edge24">
<title>-6816519851040062671-&gt;-1858967369120929514</title>
<path d="M226.54,-431.92C226.54,-440.15 226.54,-449.16 226.54,-457.37" fill="none" stroke="black"/>
<polygon fill="black" points="223.04,-457.57 226.54,-467.57 230.04,-457.57 223.04,-457.57" stroke="black"/>
</g>
<!-- 6454698148463752524 -->
<g class="node" id="node26">
<title>6454698148463752524</title>
<polygon fill="none" points="99.54,-136.99 45.54,-136.99 45.54,-100.99 99.54,-100.99 99.54,-136.99" stroke="black"/>
<text font-family="Times,serif" font-size="14.00" text-anchor="middle" x="72.54" y="-115.29">(0, 2)</text>
</g>
<!-- 6454698148463752524&#45;&gt;&#45;6816519851040062671 -->
<g class="edge" id="edge25">
<title>6454698148463752524-&gt;-6816519851040062671</title>
<path d="M87.14,-137.01C95.43,-147.1 105.68,-160.35 113.54,-172.99 156.83,-242.55 158.13,-265.19 194.54,-338.59 199.32,-348.22 204.55,-358.65 209.37,-368.22" fill="none" stroke="black"/>
<polygon fill="black" points="206.39,-370.09 214.02,-377.45 212.64,-366.94 206.39,-370.09" stroke="black"/>
</g>
<!-- 4964559571687718277 -->
<g class="node" id="node37">
<title>4964559571687718277</title>
<ellipse cx="57.54" cy="-219.79" fill="none" rx="46.59" ry="46.59" stroke="black"/>
<text font-family="Times,serif" font-size="14.00" text-anchor="middle" x="57.54" y="-216.09">getitem</text>
</g>
<!-- 6454698148463752524&#45;&gt;4964559571687718277 -->
<g class="edge" id="edge39">
<title>6454698148463752524-&gt;4964559571687718277</title>
<path d="M69.93,-137.2C68.8,-144.67 67.4,-153.88 65.96,-163.38" fill="none" stroke="black"/>
<polygon fill="black" points="62.49,-162.93 64.44,-173.34 69.41,-163.98 62.49,-162.93" stroke="black"/>
</g>
<!-- 561533860241799743 -->
<g class="node" id="node27">
<title>561533860241799743</title>
<polygon fill="none" points="257.54,-338.59 203.54,-338.59 203.54,-302.59 257.54,-302.59 257.54,-338.59" stroke="black"/>
<text font-family="Times,serif" font-size="14.00" text-anchor="middle" x="230.54" y="-316.89">(0, 2)</text>
</g>
<!-- 561533860241799743&#45;&gt;&#45;6816519851040062671 -->
<g class="edge" id="edge26">
<title>561533860241799743-&gt;-6816519851040062671</title>
<path d="M229.7,-338.68C229.33,-346.12 228.88,-355.16 228.44,-364.06" fill="none" stroke="black"/>
<polygon fill="black" points="224.93,-364.17 227.93,-374.33 231.92,-364.52 224.93,-364.17" stroke="black"/>
</g>
<!-- &#45;408534859547995846 -->
<g class="node" id="node28">
<title>-408534859547995846</title>
<ellipse cx="540.54" cy="-403.18" fill="none" rx="28.7" ry="28.7" stroke="black"/>
<text font-family="Times,serif" font-size="14.00" text-anchor="middle" x="540.54" y="-399.48">mul</text>
</g>
<!-- &#45;408534859547995846&#45;&gt;&#45;1858967369122094563 -->
<g class="edge" id="edge27">
<title>-408534859547995846-&gt;-1858967369122094563</title>
<path d="M540.54,-431.92C540.54,-440.15 540.54,-449.16 540.54,-457.37" fill="none" stroke="black"/>
<polygon fill="black" points="537.04,-457.57 540.54,-467.57 544.04,-457.57 537.04,-457.57" stroke="black"/>
</g>
<!-- 561533860242964792 -->
<g class="node" id="node29">
<title>561533860242964792</title>
<polygon fill="none" points="573.54,-338.59 519.54,-338.59 519.54,-302.59 573.54,-302.59 573.54,-338.59" stroke="black"/>
<text font-family="Times,serif" font-size="14.00" text-anchor="middle" x="546.54" y="-316.89">(0, 3)</text>
</g>
<!-- 561533860242964792&#45;&gt;&#45;408534859547995846 -->
<g class="edge" id="edge28">
<title>561533860242964792-&gt;-408534859547995846</title>
<path d="M545.27,-338.68C544.71,-346.27 544.02,-355.52 543.34,-364.59" fill="none" stroke="black"/>
<polygon fill="black" points="539.85,-364.42 542.59,-374.65 546.83,-364.94 539.85,-364.42" stroke="black"/>
</g>
<!-- 6454698148462587475 -->
<g class="node" id="node30">
<title>6454698148462587475</title>
<polygon fill="none" points="430.54,-136.99 376.54,-136.99 376.54,-100.99 430.54,-100.99 430.54,-136.99" stroke="black"/>
<text font-family="Times,serif" font-size="14.00" text-anchor="middle" x="403.54" y="-115.29">(0, 3)</text>
</g>
<!-- 6454698148462587475&#45;&gt;&#45;408534859547995846 -->
<g class="edge" id="edge29">
<title>6454698148462587475-&gt;-408534859547995846</title>
<path d="M411.91,-137.22C434.02,-182.77 494.35,-307.04 523.85,-367.8" fill="none" stroke="black"/>
<polygon fill="black" points="520.8,-369.52 528.31,-376.99 527.09,-366.46 520.8,-369.52" stroke="black"/>
</g>
<!-- &#45;6641414598594910882 -->
<g class="node" id="node38">
<title>-6641414598594910882</title>
<ellipse cx="370.54" cy="-219.79" fill="none" rx="46.59" ry="46.59" stroke="black"/>
<text font-family="Times,serif" font-size="14.00" text-anchor="middle" x="370.54" y="-216.09">getitem</text>
</g>
<!-- 6454698148462587475&#45;&gt;&#45;6641414598594910882 -->
<g class="edge" id="edge41">
<title>6454698148462587475-&gt;-6641414598594910882</title>
<path d="M397.8,-137.2C395.14,-145.16 391.82,-155.1 388.42,-165.27" fill="none" stroke="black"/>
<polygon fill="black" points="385.01,-164.44 385.16,-175.03 391.65,-166.66 385.01,-164.44" stroke="black"/>
</g>
<!-- &#45;520681983383769447 -->
<g class="node" id="node31">
<title>-520681983383769447</title>
<ellipse cx="520.54" cy="-32.5" fill="none" rx="32.49" ry="32.49" stroke="black"/>
<text font-family="Times,serif" font-size="14.00" text-anchor="middle" x="520.54" y="-28.8">ones</text>
</g>
<!-- &#45;520681983383769447&#45;&gt;6454698148466082622 -->
<g class="edge" id="edge30">
<title>-520681983383769447-&gt;6454698148466082622</title>
<path d="M520.54,-65.44C520.54,-73.67 520.54,-82.45 520.54,-90.43" fill="none" stroke="black"/>
<polygon fill="black" points="517.04,-90.69 520.54,-100.69 524.04,-90.69 517.04,-90.69" stroke="black"/>
</g>
<!-- 1531339328844962978 -->
<g class="node" id="node32">
<title>1531339328844962978</title>
<ellipse cx="207.54" cy="-32.5" fill="none" rx="32.49" ry="32.49" stroke="black"/>
<text font-family="Times,serif" font-size="14.00" text-anchor="middle" x="207.54" y="-28.8">ones</text>
</g>
<!-- 1531339328844962978&#45;&gt;6454698148464917573 -->
<g class="edge" id="edge31">
<title>1531339328844962978-&gt;6454698148464917573</title>
<path d="M207.54,-65.44C207.54,-73.67 207.54,-82.45 207.54,-90.43" fill="none" stroke="black"/>
<polygon fill="black" points="204.04,-90.69 207.54,-100.69 211.04,-90.69 204.04,-90.69" stroke="black"/>
</g>
<!-- 491651674594112403 -->
<g class="node" id="node33">
<title>491651674594112403</title>
<ellipse cx="72.54" cy="-32.5" fill="none" rx="32.49" ry="32.49" stroke="black"/>
<text font-family="Times,serif" font-size="14.00" text-anchor="middle" x="72.54" y="-28.8">ones</text>
</g>
<!-- 491651674594112403&#45;&gt;6454698148463752524 -->
<g class="edge" id="edge32">
<title>491651674594112403-&gt;6454698148463752524</title>
<path d="M72.54,-65.44C72.54,-73.67 72.54,-82.45 72.54,-90.43" fill="none" stroke="black"/>
<polygon fill="black" points="69.04,-90.69 72.54,-100.69 76.04,-90.69 69.04,-90.69" stroke="black"/>
</g>
<!-- 3113965685441987628 -->
<g class="node" id="node34">
<title>3113965685441987628</title>
<ellipse cx="403.54" cy="-32.5" fill="none" rx="32.49" ry="32.49" stroke="black"/>
<text font-family="Times,serif" font-size="14.00" text-anchor="middle" x="403.54" y="-28.8">ones</text>
</g>
<!-- 3113965685441987628&#45;&gt;6454698148462587475 -->
<g class="edge" id="edge33">
<title>3113965685441987628-&gt;6454698148462587475</title>
<path d="M403.54,-65.44C403.54,-73.67 403.54,-82.45 403.54,-90.43" fill="none" stroke="black"/>
<polygon fill="black" points="400.04,-90.69 403.54,-100.69 407.04,-90.69 400.04,-90.69" stroke="black"/>
</g>
<!-- 5647656026328511759&#45;&gt;561533860242964792 -->
<g class="edge" id="edge34">
<title>5647656026328511759-&gt;561533860242964792</title>
<path d="M553,-266.43C551.94,-275.19 550.85,-284.11 549.89,-292.07" fill="none" stroke="black"/>
<polygon fill="black" points="546.38,-291.89 548.65,-302.24 553.33,-292.74 546.38,-291.89" stroke="black"/>
</g>
<!-- 4506834708316947784&#45;&gt;561533860241799743 -->
<g class="edge" id="edge36">
<title>4506834708316947784-&gt;561533860241799743</title>
<path d="M238.66,-266.14C237.31,-275.03 235.93,-284.09 234.71,-292.17" fill="none" stroke="black"/>
<polygon fill="black" points="231.24,-291.71 233.19,-302.13 238.16,-292.76 231.24,-291.71" stroke="black"/>
</g>
<!-- 4964559571687718277&#45;&gt;561533860245294890 -->
<g class="edge" id="edge38">
<title>4964559571687718277-&gt;561533860245294890</title>
<path d="M59.4,-266.72C59.76,-275.45 60.12,-284.32 60.44,-292.25" fill="none" stroke="black"/>
<polygon fill="black" points="56.94,-292.51 60.85,-302.36 63.94,-292.22 56.94,-292.51" stroke="black"/>
</g>
<!-- &#45;6641414598594910882&#45;&gt;561533860244129841 -->
<g class="edge" id="edge40">
<title>-6641414598594910882-&gt;561533860244129841</title>
<path d="M373.33,-266.72C373.86,-275.45 374.4,-284.32 374.88,-292.25" fill="none" stroke="black"/>
<polygon fill="black" points="371.4,-292.59 375.5,-302.36 378.38,-292.16 371.4,-292.59" stroke="black"/>
</g>
</g>
</svg>