<svg height="1903pt" viewBox="0.00 0.00 789.98 1903.21" width="790pt" xmlns="http://www.w3.org/2000/svg" xmlns:xlink="http://www.w3.org/1999/xlink">
<g class="graph" id="graph0" transform="scale(1 1) rotate(0) translate(4 1899.21)">
<title>%3</title>
<polygon fill="white" points="-4,4 -4,-1899.21 785.98,-1899.21 785.98,4 -4,4" stroke="transparent"/>
<!-- 9199768765325324577 -->
<g class="node" id="node1">
<title>9199768765325324577</title>
<ellipse cx="90.99" cy="-1465.63" fill="none" rx="90.98" ry="90.98" stroke="black"/>
<text font-family="Times,serif" font-size="14.00" text-anchor="middle" x="90.99" y="-1461.93">series-min-chunk</text>
</g>
<!-- &#45;2639046154361800709 -->
<g class="node" id="node2">
<title>-2639046154361800709</title>
<polygon fill="none" points="208.99,-1628.62 136.99,-1628.62 136.99,-1592.62 208.99,-1592.62 208.99,-1628.62" stroke="black"/>
<text font-family="Times,serif" font-size="14.00" text-anchor="middle" x="172.99" y="-1606.92">(0, 0, 0)</text>
</g>
<!-- 9199768765325324577&#45;&gt;&#45;2639046154361800709 -->
<g class="edge" id="edge1">
<title>9199768765325324577-&gt;-2639046154361800709</title>
<path d="M135.83,-1544.82C143.89,-1558.88 151.76,-1572.59 158.16,-1583.75" fill="none" stroke="black"/>
<polygon fill="black" points="155.15,-1585.54 163.16,-1592.48 161.22,-1582.06 155.15,-1585.54" stroke="black"/>
</g>
<!-- 4778631971927948203 -->
<g class="node" id="node13">
<title>4778631971927948203</title>
<ellipse cx="362.99" cy="-1743.91" fill="none" rx="79.09" ry="79.09" stroke="black"/>
<text font-family="Times,serif" font-size="14.00" text-anchor="middle" x="362.99" y="-1740.21">series-min-agg</text>
</g>
<!-- &#45;2639046154361800709&#45;&gt;4778631971927948203 -->
<g class="edge" id="edge11">
<title>-2639046154361800709-&gt;4778631971927948203</title>
<path d="M197.83,-1628.78C221.1,-1644.86 257.06,-1669.71 289.49,-1692.12" fill="none" stroke="black"/>
<polygon fill="black" points="287.87,-1695.26 298.09,-1698.06 291.85,-1689.5 287.87,-1695.26" stroke="black"/>
</g>
<!-- 8992731484808761775 -->
<g class="node" id="node3">
<title>8992731484808761775</title>
<polygon fill="none" points="124.99,-1338.64 70.99,-1338.64 70.99,-1302.64 124.99,-1302.64 124.99,-1338.64" stroke="black"/>
<text font-family="Times,serif" font-size="14.00" text-anchor="middle" x="97.99" y="-1316.94">0</text>
</g>
<!-- 8992731484808761775&#45;&gt;9199768765325324577 -->
<g class="edge" id="edge2">
<title>8992731484808761775-&gt;9199768765325324577</title>
<path d="M97.15,-1338.88C96.8,-1345.94 96.37,-1354.71 95.9,-1364.31" fill="none" stroke="black"/>
<polygon fill="black" points="92.39,-1364.42 95.4,-1374.58 99.39,-1364.76 92.39,-1364.42" stroke="black"/>
</g>
<!-- 2743734436015477988 -->
<g class="node" id="node4">
<title>2743734436015477988</title>
<ellipse cx="290.99" cy="-1465.63" fill="none" rx="90.98" ry="90.98" stroke="black"/>
<text font-family="Times,serif" font-size="14.00" text-anchor="middle" x="290.99" y="-1461.93">series-min-chunk</text>
</g>
<!-- &#45;2639044700870804234 -->
<g class="node" id="node5">
<title>-2639044700870804234</title>
<polygon fill="none" points="353.99,-1628.62 281.99,-1628.62 281.99,-1592.62 353.99,-1592.62 353.99,-1628.62" stroke="black"/>
<text font-family="Times,serif" font-size="14.00" text-anchor="middle" x="317.99" y="-1606.92">(0, 1, 0)</text>
</g>
<!-- 2743734436015477988&#45;&gt;&#45;2639044700870804234 -->
<g class="edge" id="edge3">
<title>2743734436015477988-&gt;-2639044700870804234</title>
<path d="M307.71,-1555.15C309.57,-1565 311.34,-1574.4 312.88,-1582.53" fill="none" stroke="black"/>
<polygon fill="black" points="309.45,-1583.23 314.74,-1592.41 316.33,-1581.94 309.45,-1583.23" stroke="black"/>
</g>
<!-- &#45;2639044700870804234&#45;&gt;4778631971927948203 -->
<g class="edge" id="edge13">
<title>-2639044700870804234-&gt;4778631971927948203</title>
<path d="M323.87,-1628.78C326.7,-1637.04 330.32,-1647.6 334.22,-1658.96" fill="none" stroke="black"/>
<polygon fill="black" points="330.99,-1660.33 337.54,-1668.66 337.61,-1658.06 330.99,-1660.33" stroke="black"/>
</g>
<!-- 8992731484809844300 -->
<g class="node" id="node6">
<title>8992731484809844300</title>
<polygon fill="none" points="318.99,-1338.64 264.99,-1338.64 264.99,-1302.64 318.99,-1302.64 318.99,-1338.64" stroke="black"/>
<text font-family="Times,serif" font-size="14.00" text-anchor="middle" x="291.99" y="-1316.94">1</text>
</g>
<!-- 8992731484809844300&#45;&gt;2743734436015477988 -->
<g class="edge" id="edge4">
<title>8992731484809844300-&gt;2743734436015477988</title>
<path d="M291.87,-1338.88C291.82,-1345.94 291.76,-1354.71 291.69,-1364.31" fill="none" stroke="black"/>
<polygon fill="black" points="288.19,-1364.55 291.62,-1374.58 295.19,-1364.6 288.19,-1364.55" stroke="black"/>
</g>
<!-- 4114639740813679767 -->
<g class="node" id="node7">
<title>4114639740813679767</title>
<ellipse cx="490.99" cy="-1465.63" fill="none" rx="90.98" ry="90.98" stroke="black"/>
<text font-family="Times,serif" font-size="14.00" text-anchor="middle" x="490.99" y="-1461.93">series-min-chunk</text>
</g>
<!-- &#45;2639043247379807759 -->
<g class="node" id="node8">
<title>-2639043247379807759</title>
<polygon fill="none" points="498.99,-1628.62 426.99,-1628.62 426.99,-1592.62 498.99,-1592.62 498.99,-1628.62" stroke="black"/>
<text font-family="Times,serif" font-size="14.00" text-anchor="middle" x="462.99" y="-1606.92">(0, 2, 0)</text>
</g>
<!-- 4114639740813679767&#45;&gt;&#45;2639043247379807759 -->
<g class="edge" id="edge5">
<title>4114639740813679767-&gt;-2639043247379807759</title>
<path d="M473.66,-1555.15C471.73,-1565 469.89,-1574.4 468.3,-1582.53" fill="none" stroke="black"/>
<polygon fill="black" points="464.85,-1581.92 466.36,-1592.41 471.72,-1583.27 464.85,-1581.92" stroke="black"/>
</g>
<!-- &#45;2639043247379807759&#45;&gt;4778631971927948203 -->
<g class="edge" id="edge10">
<title>-2639043247379807759-&gt;4778631971927948203</title>
<path d="M449.92,-1628.78C441.23,-1640.19 429.18,-1656.02 416.81,-1672.25" fill="none" stroke="black"/>
<polygon fill="black" points="414,-1670.16 410.73,-1680.24 419.57,-1674.4 414,-1670.16" stroke="black"/>
</g>
<!-- 8992731484810926825 -->
<g class="node" id="node9">
<title>8992731484810926825</title>
<polygon fill="none" points="516.99,-1338.64 462.99,-1338.64 462.99,-1302.64 516.99,-1302.64 516.99,-1338.64" stroke="black"/>
<text font-family="Times,serif" font-size="14.00" text-anchor="middle" x="489.99" y="-1316.94">2</text>
</g>
<!-- 8992731484810926825&#45;&gt;4114639740813679767 -->
<g class="edge" id="edge6">
<title>8992731484810926825-&gt;4114639740813679767</title>
<path d="M490.11,-1338.88C490.16,-1345.94 490.22,-1354.71 490.29,-1364.31" fill="none" stroke="black"/>
<polygon fill="black" points="486.79,-1364.6 490.36,-1374.58 493.79,-1364.55 486.79,-1364.6" stroke="black"/>
</g>
<!-- 8399330344161022042 -->
<g class="node" id="node10">
<title>8399330344161022042</title>
<ellipse cx="690.99" cy="-1465.63" fill="none" rx="90.98" ry="90.98" stroke="black"/>
<text font-family="Times,serif" font-size="14.00" text-anchor="middle" x="690.99" y="-1461.93">series-min-chunk</text>
</g>
<!-- &#45;2639041793888811284 -->
<g class="node" id="node11">
<title>-2639041793888811284</title>
<polygon fill="none" points="670.99,-1628.62 598.99,-1628.62 598.99,-1592.62 670.99,-1592.62 670.99,-1628.62" stroke="black"/>
<text font-family="Times,serif" font-size="14.00" text-anchor="middle" x="634.99" y="-1606.92">(0, 3, 0)</text>
</g>
<!-- 8399330344161022042&#45;&gt;&#45;2639041793888811284 -->
<g class="edge" id="edge7">
<title>8399330344161022042-&gt;-2639041793888811284</title>
<path d="M658.09,-1550.63C653.51,-1562.33 649.11,-1573.57 645.4,-1583.04" fill="none" stroke="black"/>
<polygon fill="black" points="642.06,-1581.97 641.67,-1592.56 648.58,-1584.52 642.06,-1581.97" stroke="black"/>
</g>
<!-- &#45;2639041793888811284&#45;&gt;4778631971927948203 -->
<g class="edge" id="edge12">
<title>-2639041793888811284-&gt;4778631971927948203</title>
<path d="M599.71,-1628.65C560.32,-1647.66 495.28,-1679.06 443.33,-1704.13" fill="none" stroke="black"/>
<polygon fill="black" points="441.61,-1701.08 434.12,-1708.58 444.65,-1707.38 441.61,-1701.08" stroke="black"/>
</g>
<!-- 8992731484812009350 -->
<g class="node" id="node12">
<title>8992731484812009350</title>
<polygon fill="none" points="713.99,-1338.64 659.99,-1338.64 659.99,-1302.64 713.99,-1302.64 713.99,-1338.64" stroke="black"/>
<text font-family="Times,serif" font-size="14.00" text-anchor="middle" x="686.99" y="-1316.94">3</text>
</g>
<!-- 8992731484812009350&#45;&gt;8399330344161022042 -->
<g class="edge" id="edge8">
<title>8992731484812009350-&gt;8399330344161022042</title>
<path d="M687.47,-1338.88C687.67,-1345.94 687.92,-1354.71 688.19,-1364.31" fill="none" stroke="black"/>
<polygon fill="black" points="684.69,-1364.68 688.47,-1374.58 691.69,-1364.48 684.69,-1364.68" stroke="black"/>
</g>
<!-- &#45;5475276698129329163 -->
<g class="node" id="node14">
<title>-5475276698129329163</title>
<polygon fill="none" points="389.99,-1895.21 335.99,-1895.21 335.99,-1859.21 389.99,-1859.21 389.99,-1895.21" stroke="black"/>
<text font-family="Times,serif" font-size="14.00" text-anchor="middle" x="362.99" y="-1873.51">0</text>
</g>
<!-- 4778631971927948203&#45;&gt;&#45;5475276698129329163 -->
<g class="edge" id="edge9">
<title>4778631971927948203-&gt;-5475276698129329163</title>
<path d="M362.99,-1823.56C362.99,-1832.62 362.99,-1841.33 362.99,-1848.97" fill="none" stroke="black"/>
<polygon fill="black" points="359.49,-1848.99 362.99,-1858.99 366.49,-1848.99 359.49,-1848.99" stroke="black"/>
</g>
<!-- &#45;7241786123853321787 -->
<g class="node" id="node15">
<title>-7241786123853321787</title>
<ellipse cx="112.99" cy="-1219.84" fill="none" rx="46.59" ry="46.59" stroke="black"/>
<text font-family="Times,serif" font-size="14.00" text-anchor="middle" x="112.99" y="-1216.14">getitem</text>
</g>
<!-- &#45;7241786123853321787&#45;&gt;8992731484808761775 -->
<g class="edge" id="edge14">
<title>-7241786123853321787-&gt;8992731484808761775</title>
<path d="M106.11,-1266.19C104.76,-1275.08 103.38,-1284.14 102.15,-1292.22" fill="none" stroke="black"/>
<polygon fill="black" points="98.68,-1291.76 100.64,-1302.18 105.6,-1292.81 98.68,-1291.76" stroke="black"/>
</g>
<!-- &#45;7328904448694647492 -->
<g class="node" id="node16">
<title>-7328904448694647492</title>
<polygon fill="none" points="169.99,-1137.04 115.99,-1137.04 115.99,-1101.04 169.99,-1101.04 169.99,-1137.04" stroke="black"/>
<text font-family="Times,serif" font-size="14.00" text-anchor="middle" x="142.99" y="-1115.34">0</text>
</g>
<!-- &#45;7328904448694647492&#45;&gt;&#45;7241786123853321787 -->
<g class="edge" id="edge15">
<title>-7328904448694647492-&gt;-7241786123853321787</title>
<path d="M137.77,-1137.25C135.37,-1145.13 132.4,-1154.94 129.34,-1165" fill="none" stroke="black"/>
<polygon fill="black" points="125.96,-1164.08 126.41,-1174.66 132.66,-1166.11 125.96,-1164.08" stroke="black"/>
</g>
<!-- 250478554684506554 -->
<g class="node" id="node17">
<title>250478554684506554</title>
<ellipse cx="321.99" cy="-1219.84" fill="none" rx="46.59" ry="46.59" stroke="black"/>
<text font-family="Times,serif" font-size="14.00" text-anchor="middle" x="321.99" y="-1216.14">getitem</text>
</g>
<!-- 250478554684506554&#45;&gt;8992731484809844300 -->
<g class="edge" id="edge16">
<title>250478554684506554-&gt;8992731484809844300</title>
<path d="M308.66,-1264.75C305.73,-1274.38 302.72,-1284.29 300.08,-1293" fill="none" stroke="black"/>
<polygon fill="black" points="296.73,-1291.99 297.17,-1302.57 303.43,-1294.02 296.73,-1291.99" stroke="black"/>
</g>
<!-- &#45;7328904448695730017 -->
<g class="node" id="node18">
<title>-7328904448695730017</title>
<polygon fill="none" points="350.99,-1137.04 296.99,-1137.04 296.99,-1101.04 350.99,-1101.04 350.99,-1137.04" stroke="black"/>
<text font-family="Times,serif" font-size="14.00" text-anchor="middle" x="323.99" y="-1115.34">1</text>
</g>
<!-- &#45;7328904448695730017&#45;&gt;250478554684506554 -->
<g class="edge" id="edge17">
<title>-7328904448695730017-&gt;250478554684506554</title>
<path d="M323.64,-1137.25C323.5,-1144.56 323.31,-1153.53 323.13,-1162.82" fill="none" stroke="black"/>
<polygon fill="black" points="319.62,-1162.9 322.92,-1172.97 326.62,-1163.04 319.62,-1162.9" stroke="black"/>
</g>
<!-- 6917671588599078479 -->
<g class="node" id="node19">
<title>6917671588599078479</title>
<ellipse cx="489.99" cy="-1219.84" fill="none" rx="46.59" ry="46.59" stroke="black"/>
<text font-family="Times,serif" font-size="14.00" text-anchor="middle" x="489.99" y="-1216.14">getitem</text>
</g>
<!-- 6917671588599078479&#45;&gt;8992731484810926825 -->
<g class="edge" id="edge18">
<title>6917671588599078479-&gt;8992731484810926825</title>
<path d="M489.99,-1266.77C489.99,-1275.5 489.99,-1284.37 489.99,-1292.3" fill="none" stroke="black"/>
<polygon fill="black" points="486.49,-1292.41 489.99,-1302.41 493.49,-1292.41 486.49,-1292.41" stroke="black"/>
</g>
<!-- &#45;7328904448692482442 -->
<g class="node" id="node20">
<title>-7328904448692482442</title>
<polygon fill="none" points="509.99,-1137.04 455.99,-1137.04 455.99,-1101.04 509.99,-1101.04 509.99,-1137.04" stroke="black"/>
<text font-family="Times,serif" font-size="14.00" text-anchor="middle" x="482.99" y="-1115.34">2</text>
</g>
<!-- &#45;7328904448692482442&#45;&gt;6917671588599078479 -->
<g class="edge" id="edge19">
<title>-7328904448692482442-&gt;6917671588599078479</title>
<path d="M484.21,-1137.25C484.73,-1144.56 485.36,-1153.53 486.02,-1162.82" fill="none" stroke="black"/>
<polygon fill="black" points="482.54,-1163.24 486.74,-1172.97 489.53,-1162.74 482.54,-1163.24" stroke="black"/>
</g>
<!-- 5934800355937157204 -->
<g class="node" id="node21">
<title>5934800355937157204</title>
<ellipse cx="679.99" cy="-1219.84" fill="none" rx="46.59" ry="46.59" stroke="black"/>
<text font-family="Times,serif" font-size="14.00" text-anchor="middle" x="679.99" y="-1216.14">getitem</text>
</g>
<!-- 5934800355937157204&#45;&gt;8992731484812009350 -->
<g class="edge" id="edge20">
<title>5934800355937157204-&gt;8992731484812009350</title>
<path d="M683.25,-1266.77C683.86,-1275.5 684.49,-1284.37 685.05,-1292.3" fill="none" stroke="black"/>
<polygon fill="black" points="681.57,-1292.68 685.77,-1302.41 688.56,-1292.18 681.57,-1292.68" stroke="black"/>
</g>
<!-- &#45;7328904448693564967 -->
<g class="node" id="node22">
<title>-7328904448693564967</title>
<polygon fill="none" points="669.99,-1137.04 615.99,-1137.04 615.99,-1101.04 669.99,-1101.04 669.99,-1137.04" stroke="black"/>
<text font-family="Times,serif" font-size="14.00" text-anchor="middle" x="642.99" y="-1115.34">3</text>
</g>
<!-- &#45;7328904448693564967&#45;&gt;5934800355937157204 -->
<g class="edge" id="edge21">
<title>-7328904448693564967-&gt;5934800355937157204</title>
<path d="M649.44,-1137.25C652.48,-1145.38 656.3,-1155.57 660.19,-1165.96" fill="none" stroke="black"/>
<polygon fill="black" points="656.98,-1167.37 663.76,-1175.51 663.53,-1164.91 656.98,-1167.37" stroke="black"/>
</g>
<!-- 6847576282231442714 -->
<g class="node" id="node23">
<title>6847576282231442714</title>
<ellipse cx="410.99" cy="-803.66" fill="none" rx="31.4" ry="31.4" stroke="black"/>
<text font-family="Times,serif" font-size="14.00" text-anchor="middle" x="410.99" y="-799.96">split</text>
</g>
<!-- &#45;8633249929479056724 -->
<g class="node" id="node24">
<title>-8633249929479056724</title>
<polygon fill="none" points="437.99,-906.85 383.99,-906.85 383.99,-870.85 437.99,-870.85 437.99,-906.85" stroke="black"/>
<text font-family="Times,serif" font-size="14.00" text-anchor="middle" x="410.99" y="-885.15">0</text>
</g>
<!-- 6847576282231442714&#45;&gt;&#45;8633249929479056724 -->
<g class="edge" id="edge22">
<title>6847576282231442714-&gt;-8633249929479056724</title>
<path d="M410.99,-835.16C410.99,-843.42 410.99,-852.3 410.99,-860.38" fill="none" stroke="black"/>
<polygon fill="black" points="407.49,-860.41 410.99,-870.41 414.49,-860.41 407.49,-860.41" stroke="black"/>
</g>
<!-- 7529323262398261706 -->
<g class="node" id="node26">
<title>7529323262398261706</title>
<ellipse cx="172.99" cy="-1003.95" fill="none" rx="61.19" ry="61.19" stroke="black"/>
<text font-family="Times,serif" font-size="14.00" text-anchor="middle" x="172.99" y="-1000.25">repartition</text>
</g>
<!-- &#45;8633249929479056724&#45;&gt;7529323262398261706 -->
<g class="edge" id="edge25">
<title>-8633249929479056724-&gt;7529323262398261706</title>
<path d="M383.88,-898.16C354.8,-907.48 307.58,-923.82 268.99,-942.85 256.65,-948.94 243.87,-956.2 231.83,-963.52" fill="none" stroke="black"/>
<polygon fill="black" points="229.87,-960.62 223.21,-968.85 233.55,-966.57 229.87,-960.62" stroke="black"/>
</g>
<!-- 7904822772508976789 -->
<g class="node" id="node27">
<title>7904822772508976789</title>
<ellipse cx="338.99" cy="-1003.95" fill="none" rx="61.19" ry="61.19" stroke="black"/>
<text font-family="Times,serif" font-size="14.00" text-anchor="middle" x="338.99" y="-1000.25">repartition</text>
</g>
<!-- &#45;8633249929479056724&#45;&gt;7904822772508976789 -->
<g class="edge" id="edge27">
<title>-8633249929479056724-&gt;7904822772508976789</title>
<path d="M400.06,-907.03C393.8,-916.87 385.53,-929.85 377.11,-943.08" fill="none" stroke="black"/>
<polygon fill="black" points="373.99,-941.47 371.57,-951.78 379.89,-945.23 373.99,-941.47" stroke="black"/>
</g>
<!-- 5266188140619193956 -->
<g class="node" id="node28">
<title>5266188140619193956</title>
<ellipse cx="482.99" cy="-1003.95" fill="none" rx="61.19" ry="61.19" stroke="black"/>
<text font-family="Times,serif" font-size="14.00" text-anchor="middle" x="482.99" y="-1000.25">repartition</text>
</g>
<!-- &#45;8633249929479056724&#45;&gt;5266188140619193956 -->
<g class="edge" id="edge29">
<title>-8633249929479056724-&gt;5266188140619193956</title>
<path d="M421.93,-907.03C428.19,-916.87 436.46,-929.85 444.88,-943.08" fill="none" stroke="black"/>
<polygon fill="black" points="442.09,-945.23 450.42,-951.78 448,-941.47 442.09,-945.23" stroke="black"/>
</g>
<!-- 6245930181968046431 -->
<g class="node" id="node29">
<title>6245930181968046431</title>
<ellipse cx="639.99" cy="-1003.95" fill="none" rx="61.19" ry="61.19" stroke="black"/>
<text font-family="Times,serif" font-size="14.00" text-anchor="middle" x="639.99" y="-1000.25">repartition</text>
</g>
<!-- &#45;8633249929479056724&#45;&gt;6245930181968046431 -->
<g class="edge" id="edge31">
<title>-8633249929479056724-&gt;6245930181968046431</title>
<path d="M438,-897.74C467.21,-906.76 514.73,-922.89 552.99,-942.85 563.06,-948.11 573.35,-954.33 583.15,-960.75" fill="none" stroke="black"/>
<polygon fill="black" points="581.37,-963.77 591.63,-966.42 585.27,-957.95 581.37,-963.77" stroke="black"/>
</g>
<!-- 4291491386819814324 -->
<g class="node" id="node25">
<title>4291491386819814324</title>
<polygon fill="none" points="437.99,-736.46 383.99,-736.46 383.99,-700.46 437.99,-700.46 437.99,-736.46" stroke="black"/>
<text font-family="Times,serif" font-size="14.00" text-anchor="middle" x="410.99" y="-714.76">0</text>
</g>
<!-- 4291491386819814324&#45;&gt;6847576282231442714 -->
<g class="edge" id="edge23">
<title>4291491386819814324-&gt;6847576282231442714</title>
<path d="M410.99,-736.7C410.99,-744.17 410.99,-753.26 410.99,-762.27" fill="none" stroke="black"/>
<polygon fill="black" points="407.49,-762.32 410.99,-772.32 414.49,-762.32 407.49,-762.32" stroke="black"/>
</g>
<!-- 7529323262398261706&#45;&gt;&#45;7328904448694647492 -->
<g class="edge" id="edge24">
<title>7529323262398261706-&gt;-7328904448694647492</title>
<path d="M157.55,-1063.15C154.94,-1073 152.34,-1082.79 150.08,-1091.31" fill="none" stroke="black"/>
<polygon fill="black" points="146.7,-1090.43 147.52,-1100.99 153.46,-1092.22 146.7,-1090.43" stroke="black"/>
</g>
<!-- 7904822772508976789&#45;&gt;&#45;7328904448695730017 -->
<g class="edge" id="edge26">
<title>7904822772508976789-&gt;-7328904448695730017</title>
<path d="M331.05,-1064.81C329.85,-1073.84 328.67,-1082.76 327.63,-1090.64" fill="none" stroke="black"/>
<polygon fill="black" points="324.14,-1090.29 326.3,-1100.66 331.08,-1091.21 324.14,-1090.29" stroke="black"/>
</g>
<!-- 5266188140619193956&#45;&gt;&#45;7328904448692482442 -->
<g class="edge" id="edge28">
<title>5266188140619193956-&gt;-7328904448692482442</title>
<path d="M482.99,-1065.14C482.99,-1074.03 482.99,-1082.8 482.99,-1090.57" fill="none" stroke="black"/>
<polygon fill="black" points="479.49,-1090.79 482.99,-1100.79 486.49,-1090.79 479.49,-1090.79" stroke="black"/>
</g>
<!-- 6245930181968046431&#45;&gt;&#45;7328904448693564967 -->
<g class="edge" id="edge30">
<title>6245930181968046431-&gt;-7328904448693564967</title>
<path d="M641.59,-1065.14C641.82,-1074.03 642.06,-1082.8 642.26,-1090.57" fill="none" stroke="black"/>
<polygon fill="black" points="638.77,-1090.88 642.53,-1100.79 645.77,-1090.7 638.77,-1090.88" stroke="black"/>
</g>
<!-- &#45;9166431453621939663 -->
<g class="node" id="node30">
<title>-9166431453621939663</title>
<ellipse cx="410.99" cy="-320.53" fill="none" rx="92.88" ry="92.88" stroke="black"/>
<text font-family="Times,serif" font-size="14.00" text-anchor="middle" x="410.99" y="-316.83">pandas_read_text</text>
</g>
<!-- 7777125125422023467 -->
<g class="node" id="node31">
<title>7777125125422023467</title>
<polygon fill="none" points="437.99,-485.47 383.99,-485.47 383.99,-449.47 437.99,-449.47 437.99,-485.47" stroke="black"/>
</g>
<!-- &#45;9166431453621939663&#45;&gt;7777125125422023467 -->
<g class="edge" id="edge32">
<title>-9166431453621939663-&gt;7777125125422023467</title>
<path d="M410.99,-413.74C410.99,-422.99 410.99,-431.79 410.99,-439.45" fill="none" stroke="black"/>
<polygon fill="black" points="407.49,-439.45 410.99,-449.45 414.49,-439.45 407.49,-439.45" stroke="black"/>
</g>
<!-- &#45;5930303562222381822 -->
<g class="node" id="node34">
<title>-5930303562222381822</title>
<ellipse cx="410.99" cy="-592.97" fill="none" rx="71.49" ry="71.49" stroke="black"/>
<text font-family="Times,serif" font-size="14.00" text-anchor="middle" x="410.99" y="-589.27">from-delayed</text>
</g>
<!-- 7777125125422023467&#45;&gt;&#45;5930303562222381822 -->
<g class="edge" id="edge36">
<title>7777125125422023467-&gt;-5930303562222381822</title>
<path d="M410.99,-485.64C410.99,-492.78 410.99,-501.61 410.99,-511.11" fill="none" stroke="black"/>
<polygon fill="black" points="407.49,-511.21 410.99,-521.21 414.49,-511.21 407.49,-511.21" stroke="black"/>
</g>
<!-- &#45;2943059843211316327 -->
<g class="node" id="node32">
<title>-2943059843211316327</title>
<polygon fill="none" points="437.99,-191.59 383.99,-191.59 383.99,-155.59 437.99,-155.59 437.99,-191.59" stroke="black"/>
</g>
<!-- &#45;2943059843211316327&#45;&gt;&#45;9166431453621939663 -->
<g class="edge" id="edge33">
<title>-2943059843211316327-&gt;-9166431453621939663</title>
<path d="M410.99,-191.79C410.99,-198.8 410.99,-207.51 410.99,-217.07" fill="none" stroke="black"/>
<polygon fill="black" points="407.49,-217.3 410.99,-227.3 414.49,-217.3 407.49,-217.3" stroke="black"/>
</g>
<!-- 8560901310415693855 -->
<g class="node" id="node33">
<title>8560901310415693855</title>
<ellipse cx="410.99" cy="-59.79" fill="none" rx="59.59" ry="59.59" stroke="black"/>
<text font-family="Times,serif" font-size="14.00" text-anchor="middle" x="410.99" y="-56.09">read-block</text>
</g>
<!-- 8560901310415693855&#45;&gt;&#45;2943059843211316327 -->
<g class="edge" id="edge34">
<title>8560901310415693855-&gt;-2943059843211316327</title>
<path d="M410.99,-119.64C410.99,-128.51 410.99,-137.27 410.99,-145.05" fill="none" stroke="black"/>
<polygon fill="black" points="407.49,-145.28 410.99,-155.28 414.49,-145.28 407.49,-145.28" stroke="black"/>
</g>
<!-- &#45;5930303562222381822&#45;&gt;4291491386819814324 -->
<g class="edge" id="edge35">
<title>-5930303562222381822-&gt;4291491386819814324</title>
<path d="M410.99,-664.73C410.99,-673.67 410.99,-682.35 410.99,-690" fill="none" stroke="black"/>
<polygon fill="black" points="407.49,-690.05 410.99,-700.05 414.49,-690.05 407.49,-690.05" stroke="black"/>
</g>
</g>
</svg>